<?xml version="1.0" standalone="no"?>
<!DOCTYPE svg PUBLIC "-//W3C//DTD SVG 20010904//EN"
 "http://www.w3.org/TR/2001/REC-SVG-20010904/DTD/svg10.dtd">
<svg version="1.0" xmlns="http://www.w3.org/2000/svg"
 width="408.000000pt" height="612.000000pt" viewBox="0 0 408.000000 612.000000"
 preserveAspectRatio="xMidYMid meet">

<g transform="translate(0.000000,612.000000) scale(0.100000,-0.100000)"
fill="#000000" stroke="none">
<path d="M2455 5174 c-22 -35 -6 -53 26 -30 13 9 18 16 12 16 -6 0 -9 9 -6 20
8 28 -12 25 -32 -6z"/>
<path d="M2204 5139 c-3 -6 -1 -16 5 -22 8 -8 11 -5 11 11 0 24 -5 28 -16 11z"/>
<path d="M2414 5129 c-4 -8 -3 -9 4 -5 17 10 15 -6 -4 -32 -19 -28 -55 -132
-46 -132 4 0 16 14 25 30 10 17 27 30 37 30 10 0 24 1 32 3 7 2 -1 -3 -18 -11
-37 -16 -62 -61 -42 -73 17 -11 38 -11 38 0 0 5 6 11 14 14 11 5 11 0 -2 -23
-9 -16 -21 -26 -27 -22 -21 13 -35 10 -35 -9 0 -10 4 -19 10 -19 5 0 6 -8 3
-17 -9 -23 73 41 88 68 5 10 20 19 33 19 13 0 27 7 30 16 9 23 8 27 -8 21 -10
-4 -13 -1 -9 8 3 8 9 12 14 9 5 -3 9 2 9 10 0 19 -5 20 -30 6 -20 -11 -50 13
-30 25 5 3 10 -1 10 -10 0 -13 5 -12 30 7 l30 22 -21 22 c-11 12 -36 24 -55
26 -33 4 -45 -4 -24 -17 17 -11 11 -22 -15 -27 -17 -4 -25 -1 -25 9 0 8 4 12
9 9 4 -3 6 6 3 19 -5 30 -18 40 -28 24z"/>
<path d="M2000 5021 c0 -5 -10 -13 -22 -17 -23 -7 -38 -21 -38 -38 0 -4 7 -5
16 -2 8 3 12 2 9 -4 -6 -9 22 -86 29 -79 11 11 16 92 6 104 -8 9 -7 14 5 18
17 7 35 -20 35 -52 0 -12 5 -21 10 -21 13 0 3 47 -16 78 -15 22 -34 30 -34 13z"/>
<path d="M2133 4925 c-3 -9 -3 -19 1 -22 3 -4 6 1 6 10 0 8 6 18 13 20 9 4 9
6 -1 6 -7 1 -15 -6 -19 -14z"/>
<path d="M2499 4918 c-7 -13 -19 -28 -27 -34 -18 -13 -9 -44 13 -44 9 0 15 9
15 25 0 14 4 25 9 25 5 0 8 -11 5 -24 -4 -23 -2 -23 21 -13 14 7 25 16 25 20
0 5 -4 6 -9 2 -5 -3 -11 9 -13 27 -4 39 -23 47 -39 16z"/>
<path d="M1956 4879 c28 -58 61 -84 117 -93 50 -9 29 25 -31 49 -23 10 -58 36
-78 58 l-35 41 27 -55z"/>
<path d="M2030 4910 c0 -6 5 -16 10 -23 6 -7 17 -21 25 -32 20 -29 29 -12 15
29 -8 25 -18 36 -31 36 -10 0 -19 -5 -19 -10z"/>
<path d="M2025 4870 c3 -5 8 -10 11 -10 2 0 4 5 4 10 0 6 -5 10 -11 10 -5 0
-7 -4 -4 -10z"/>
<path d="M2425 4840 c-10 -11 -15 -20 -11 -20 11 0 39 30 34 36 -3 2 -13 -5
-23 -16z"/>
<path d="M2510 4830 c-10 -6 -11 -12 -5 -19 7 -6 18 -3 34 10 20 17 21 19 5
19 -11 0 -26 -5 -34 -10z"/>
<path d="M2263 4805 c0 -8 4 -12 9 -9 4 3 8 9 8 15 0 5 -4 9 -8 9 -5 0 -9 -7
-9 -15z"/>
<path d="M2540 4809 c0 -5 5 -7 10 -4 6 3 10 8 10 11 0 2 -4 4 -10 4 -5 0 -10
-5 -10 -11z"/>
<path d="M1986 4797 c3 -10 9 -15 12 -12 3 3 0 11 -7 18 -10 9 -11 8 -5 -6z"/>
<path d="M2480 4794 c0 -17 17 -36 24 -26 3 5 -1 15 -9 22 -8 7 -15 9 -15 4z"/>
<path d="M1950 4774 c0 -16 75 -73 84 -64 5 5 8 11 5 13 -36 26 -89 56 -89 51z"/>
<path d="M2050 4770 c8 -5 20 -10 25 -10 6 0 3 5 -5 10 -8 5 -19 10 -25 10 -5
0 -3 -5 5 -10z"/>
<path d="M2380 4776 c0 -2 9 -6 20 -9 11 -3 20 -1 20 4 0 5 -9 9 -20 9 -11 0
-20 -2 -20 -4z"/>
<path d="M2514 4755 c-9 -14 -15 -28 -12 -30 3 -3 11 6 18 20 7 13 20 26 29
28 14 4 13 5 -1 6 -10 0 -25 -10 -34 -24z"/>
<path d="M2420 4726 c0 -8 6 -16 13 -19 8 -3 14 1 14 9 0 7 -6 15 -14 18 -7 3
-13 -1 -13 -8z"/>
<path d="M1188 4709 c-10 -5 -18 -18 -18 -27 1 -16 1 -16 11 1 5 9 19 17 30
17 11 0 17 -4 14 -10 -3 -5 -1 -10 5 -10 17 0 7 34 -10 37 -8 2 -23 -2 -32 -8z"/>
<path d="M2270 4700 c0 -5 9 -10 20 -10 11 0 20 5 20 10 0 6 -9 10 -20 10 -11
0 -20 -4 -20 -10z"/>
<path d="M1837 4688 c-6 -18 24 -35 42 -24 5 3 11 0 14 -8 6 -14 57 -19 57 -6
0 10 -56 30 -81 30 -9 0 -19 5 -21 12 -3 8 -7 6 -11 -4z"/>
<path d="M1262 4665 c6 -14 13 -23 16 -21 7 7 -9 46 -18 46 -5 0 -4 -11 2 -25z"/>
<path d="M990 4619 c-9 -16 -8 -20 2 -17 8 2 15 -1 17 -7 6 -20 24 -35 42 -35
20 0 24 -16 10 -38 -8 -14 8 -62 21 -62 4 0 5 -7 2 -15 -4 -10 0 -15 14 -15
18 0 19 4 11 38 -4 20 -16 55 -25 77 -10 22 -19 46 -20 53 -3 16 -34 41 -51
42 -7 0 -17 -9 -23 -21z"/>
<path d="M1800 4632 c0 -5 7 -15 15 -22 8 -7 12 -16 10 -21 -3 -4 7 -15 22
-23 16 -8 21 -15 13 -16 -10 0 -7 -7 10 -20 23 -18 100 -29 100 -14 0 12 -35
33 -55 34 -11 1 -14 4 -8 7 7 2 -10 20 -39 39 -70 47 -68 46 -68 36z"/>
<path d="M1938 4623 c7 -3 16 -2 19 1 4 3 -2 6 -13 5 -11 0 -14 -3 -6 -6z"/>
<path d="M1282 4600 c0 -14 2 -19 5 -12 2 6 2 18 0 25 -3 6 -5 1 -5 -13z"/>
<path d="M2707 4521 c3 -21 1 -41 -4 -44 -5 -3 -7 -22 -5 -41 2 -20 8 -34 12
-31 9 5 168 -74 240 -119 250 -158 446 -361 598 -619 200 -339 281 -767 221
-1170 -24 -161 -108 -422 -177 -547 -58 -105 -103 -178 -141 -229 -23 -30 -41
-58 -41 -63 0 -19 -291 -298 -370 -355 -47 -33 -87 -60 -90 -59 -3 0 -15 -8
-27 -19 -12 -11 -66 -42 -120 -70 -54 -27 -109 -57 -123 -67 -14 -9 -43 -20
-65 -24 -23 -4 -50 -19 -68 -37 -18 -19 -32 -26 -38 -20 -13 13 -101 -16 -131
-42 -13 -11 -27 -20 -33 -21 -5 0 -18 -4 -28 -9 -19 -8 -104 -11 -182 -7 -27
2 -62 1 -78 -1 -15 -3 -41 1 -58 10 -25 12 -38 13 -80 3 -35 -9 -53 -9 -62 -1
-10 7 -17 7 -24 0 -8 -8 -13 -8 -17 0 -5 8 -13 8 -28 0 -16 -9 -23 -8 -29 2
-5 10 -33 14 -103 14 -57 0 -96 4 -96 10 0 6 -5 3 -10 -5 -8 -13 -10 -12 -10
3 0 9 -4 17 -10 17 -5 0 -10 -6 -10 -14 0 -11 -13 -13 -62 -10 -35 2 -74 8
-88 13 -14 5 -47 14 -75 21 -47 11 -234 95 -245 110 -3 4 -16 10 -30 14 -14 4
-20 4 -15 -1 6 -4 20 -23 33 -40 l22 -33 -26 10 c-14 6 -35 15 -47 21 -22 10
-22 10 -2 -7 38 -32 281 -142 390 -177 681 -218 1422 -49 1949 444 356 333
578 819 610 1336 17 270 -47 614 -161 878 -80 182 -263 448 -301 438 -13 -3
-28 6 -45 26 -14 17 -30 31 -35 31 -5 0 -17 9 -27 20 -10 11 -23 20 -30 20 -6
0 -18 11 -25 25 -7 14 -22 25 -32 25 -10 0 -21 7 -24 15 -3 8 -21 24 -38 35
-18 11 -44 30 -57 42 -45 41 -113 94 -146 113 -18 11 -33 22 -33 25 0 3 -16
14 -35 24 -19 11 -35 23 -35 28 0 5 -4 6 -10 3 -5 -3 -10 1 -10 9 0 9 -6 16
-14 16 -8 0 -22 8 -32 18 -10 9 -21 18 -26 18 -4 1 -12 2 -18 3 -5 0 -10 6
-10 12 0 13 -22 32 -62 54 l-26 14 5 -38z m-1527 -3536 c25 -13 38 -24 30 -24
-8 0 -35 11 -60 24 -25 13 -38 24 -30 24 8 0 35 -11 60 -24z"/>
<path d="M1805 4481 c-19 -8 -19 -8 0 -18 20 -11 27 -13 45 -13 6 0 10 -7 10
-15 0 -8 5 -15 10 -15 15 0 12 9 -11 41 -22 31 -24 32 -54 20z"/>
<path d="M1962 4478 c6 -18 25 -21 25 -3 0 8 -7 15 -14 15 -8 0 -13 -5 -11
-12z"/>
<path d="M1719 4456 c7 -17 5 -28 -7 -40 -16 -16 -15 -16 20 -12 33 4 38 1 52
-29 9 -18 21 -35 26 -37 5 -2 11 -15 12 -30 1 -16 6 -28 10 -28 4 0 8 -13 8
-30 0 -16 3 -29 8 -27 13 4 52 -39 57 -63 3 -13 9 -28 15 -34 15 -15 13 10 -5
45 -9 16 -13 34 -10 40 4 5 1 17 -7 26 -11 15 -11 16 7 10 14 -5 10 0 -10 17
-28 24 -29 25 -8 26 40 0 38 28 -7 84 -15 19 -15 19 15 0 16 -10 26 -13 21 -6
-11 19 -156 90 -156 76 0 -2 19 -13 42 -23 33 -13 38 -19 24 -24 -11 -5 -15
-3 -10 5 5 8 2 9 -9 5 -10 -3 -17 -2 -17 3 0 5 -12 13 -26 16 -14 4 -23 12
-20 19 2 7 -1 18 -7 24 -18 18 -27 12 -18 -13z"/>
<path d="M1926 4445 c18 -15 18 -15 -9 -9 -21 5 -26 3 -22 -9 4 -8 17 -19 31
-26 23 -10 25 -9 19 9 -4 13 -2 20 7 20 15 1 -20 30 -36 30 -5 0 -1 -7 10 -15z"/>
<path d="M1030 4415 c7 -8 17 -15 23 -15 6 0 21 -10 34 -22 18 -16 23 -18 23
-6 0 18 -34 51 -43 41 -4 -3 -7 -1 -7 5 0 7 -10 12 -21 12 -18 0 -19 -2 -9
-15z"/>
<path d="M2505 4399 c-4 -6 -5 -12 -2 -15 2 -3 7 2 10 11 7 17 1 20 -8 4z"/>
<path d="M2430 4389 c0 -5 5 -7 10 -4 6 3 10 8 10 11 0 2 -4 4 -10 4 -5 0 -10
-5 -10 -11z"/>
<path d="M889 4332 c-127 -84 -215 -158 -322 -274 -111 -119 -157 -179 -232
-299 -75 -121 -145 -262 -127 -256 4 1 8 -1 10 -6 5 -16 1 -25 -14 -31 -14 -5
-15 -4 -4 9 7 8 8 15 2 15 -12 0 -76 -171 -102 -275 -25 -103 -25 -109 -1 -93
11 7 19 16 18 21 -1 5 4 12 12 15 8 2 11 1 9 -4 -3 -5 -2 -18 3 -29 7 -20 8
-20 8 1 1 11 10 29 20 38 11 10 17 25 14 37 -4 13 2 27 16 40 11 11 21 26 21
35 0 17 48 139 103 264 9 19 14 37 11 39 -6 6 -25 -14 -28 -30 -1 -8 -14 -39
-28 -69 -14 -31 -31 -74 -38 -95 -13 -42 -30 -68 -30 -47 0 9 24 79 55 157 5
14 5 17 -2 10 -6 -5 -21 -39 -34 -75 -14 -38 -25 -57 -27 -47 -6 28 48 143 65
140 5 -1 25 29 43 68 19 38 36 69 39 69 4 0 12 13 19 30 7 16 22 32 33 35 13
4 19 15 19 35 0 23 3 28 17 23 12 -5 14 -3 8 7 -5 8 3 22 24 41 18 15 30 32
27 38 -3 5 1 11 9 15 8 3 15 12 15 21 0 9 16 31 35 51 19 19 35 39 35 44 0 6
5 10 10 10 6 0 10 4 10 10 0 20 119 126 137 122 8 -2 10 4 6 15 -3 10 -3 15 2
11 9 -8 52 42 47 55 -1 5 2 6 7 3 5 -4 12 -2 16 4 4 6 11 8 16 5 5 -4 9 -1 9
5 0 7 -7 10 -15 6 -54 -20 39 69 105 100 22 10 40 25 40 32 0 15 9 20 -91 -46z
m-634 -773 c-10 -15 -25 -10 -19 6 4 8 10 12 15 9 5 -3 7 -10 4 -15z m-51
-124 c-4 -8 -10 -12 -15 -9 -11 6 -2 24 11 24 5 0 7 -7 4 -15z"/>
<path d="M2670 4362 c-8 -9 -15 -30 -15 -47 0 -24 -4 -29 -19 -27 -11 2 -51
-9 -88 -24 -54 -22 -65 -30 -53 -37 11 -6 22 -4 33 6 9 8 26 17 37 20 26 8 59
-17 52 -38 -6 -15 -38 -15 -115 1 -15 3 -21 1 -17 -5 3 -7 0 -8 -9 -5 -9 3
-13 11 -9 18 3 6 -5 1 -18 -11 -13 -12 -42 -30 -64 -39 -52 -21 -105 -68 -96
-83 6 -9 11 -8 21 4 7 9 22 21 32 26 18 10 19 9 7 -13 -6 -13 -18 -31 -27 -41
-8 -9 -12 -20 -9 -24 4 -3 7 -1 7 5 0 7 7 12 16 12 10 0 14 -6 10 -15 -3 -8
-1 -15 5 -15 6 0 7 -5 3 -11 -4 -8 -9 -7 -15 2 -7 11 -14 8 -34 -13 -14 -16
-20 -28 -13 -28 9 0 9 -3 0 -12 -17 -17 -15 -29 4 -26 31 5 26 -20 -12 -62
-22 -24 -43 -39 -51 -35 -12 4 -13 -2 -8 -28 4 -17 13 -37 21 -43 16 -12 19
-50 5 -58 -5 -3 -14 1 -21 9 -10 12 -16 10 -37 -15 -25 -31 -43 -38 -43 -19 0
5 5 7 11 3 7 -4 10 -1 7 6 -7 23 -28 23 -28 1 0 -12 -4 -21 -10 -21 -5 0 -10
4 -10 8 0 5 -7 9 -15 9 -8 0 -15 -8 -15 -18 0 -9 -6 -19 -12 -22 -19 -6 -48
11 -48 28 0 26 -21 16 -31 -15 l-11 -30 -31 22 c-26 19 -30 20 -24 4 4 -10 7
-20 7 -22 0 -2 7 -4 16 -4 10 0 14 -6 10 -15 -4 -11 1 -15 18 -15 13 0 29 7
36 15 13 15 65 20 94 9 13 -5 14 -9 5 -20 -9 -11 -8 -18 4 -32 18 -19 12 -35
-16 -45 -10 -4 -16 -11 -13 -15 6 -10 -29 -42 -45 -42 -5 0 -8 -4 -4 -9 3 -5
-5 -11 -17 -13 -18 -2 -23 -10 -24 -36 -2 -33 -14 -59 -14 -30 0 22 -27 30
-44 13 -12 -12 -15 -12 -19 -1 -3 7 0 19 6 25 8 8 7 15 -5 27 -14 14 -17 14
-31 0 -10 -10 -18 -12 -22 -6 -12 19 -22 10 -17 -15 3 -20 0 -25 -17 -25 -13
0 -21 -6 -21 -17 0 -15 2 -16 10 -3 8 12 14 12 45 -3 21 -10 45 -15 54 -12 11
3 23 -5 35 -26 17 -29 14 -58 -3 -30 -14 23 -29 3 -26 -34 2 -19 6 -39 10 -45
3 -5 0 -10 -7 -11 -7 0 -3 -5 10 -11 12 -6 22 -20 22 -32 1 -19 2 -19 15 4 9
17 10 29 3 37 -5 7 -6 18 -2 24 5 8 1 11 -12 7 -14 -4 -20 0 -21 13 -2 25 17
36 31 17 6 -9 20 -17 31 -19 12 -3 21 -14 23 -27 2 -12 7 -22 12 -22 6 0 6 10
0 25 -8 21 -5 29 18 50 15 14 35 25 45 25 10 0 15 5 12 10 -3 6 -1 10 4 10 6
0 11 5 11 11 0 6 -7 9 -15 6 -8 -4 -17 -2 -20 3 -4 6 -1 11 4 11 6 1 16 2 21
3 6 0 15 8 21 16 7 11 8 8 5 -12 -4 -26 8 -40 16 -19 2 5 16 7 31 4 17 -3 26
-11 23 -18 -2 -7 8 -18 22 -25 15 -7 22 -14 16 -17 -20 -7 -4 -41 16 -36 14 4
18 -1 16 -24 0 -15 -9 -35 -19 -43 -17 -14 -17 -18 -2 -53 17 -42 30 -51 14
-11 -14 37 -6 54 46 98 l46 38 -26 24 c-21 20 -24 27 -15 44 6 11 8 20 4 20
-4 0 1 9 11 20 10 11 22 20 27 20 18 0 20 -31 3 -50 -18 -19 -16 -22 14 -24
23 -2 25 -26 2 -26 -12 0 -21 -5 -21 -11 0 -6 9 -8 20 -4 11 4 20 2 20 -4 0
-6 -6 -11 -14 -11 -8 0 -24 -16 -36 -35 -12 -19 -28 -35 -36 -35 -11 0 -14 -6
-9 -22 5 -18 4 -20 -4 -8 -12 17 -14 10 -11 -39 1 -24 11 -41 31 -58 16 -14
29 -31 29 -39 0 -26 -31 -62 -62 -73 -26 -9 -29 -13 -18 -26 16 -19 60 -19 86
0 24 18 56 19 97 1 46 -19 67 -43 67 -76 0 -21 4 -28 13 -24 8 3 20 -2 27 -11
12 -14 10 -20 -16 -41 -52 -43 -92 -43 -118 -1 -8 13 -7 20 4 27 8 5 17 7 21
4 4 -2 10 0 14 6 4 6 -11 10 -39 10 -28 0 -48 5 -53 14 -4 8 -21 18 -38 22
l-30 7 33 -27 c44 -38 43 -60 -3 -53 -38 6 -45 -5 -20 -30 18 -17 13 -29 -16
-36 -15 -4 -19 -2 -15 9 3 8 -1 14 -8 14 -8 0 -23 3 -33 6 -17 5 -17 5 0 -9
18 -15 17 -16 -11 -31 -28 -15 -30 -14 -41 10 -7 17 -17 24 -26 20 -8 -3 -15
-1 -15 4 0 6 12 10 26 10 21 0 24 3 16 13 -9 10 -3 12 26 9 30 -2 34 -1 19 8
-9 6 -15 15 -12 21 8 11 -2 11 -42 0 -23 -7 -35 -6 -42 3 -13 16 -4 26 22 26
19 0 19 1 2 28 -10 15 -12 21 -4 15 18 -18 45 -17 31 0 -8 9 -4 19 14 36 13
13 21 28 18 33 -4 6 -11 3 -17 -8 -16 -28 -39 -43 -67 -44 l-25 0 2 -113 c2
-142 4 -151 28 -157 14 -4 26 -24 39 -64 18 -54 18 -60 3 -92 -9 -19 -22 -34
-28 -34 -6 0 -24 -9 -40 -20 -28 -20 -28 -21 -9 -40 12 -12 16 -26 13 -40 -5
-19 -3 -21 17 -15 30 9 23 -15 -8 -26 -17 -6 -22 -5 -22 7 0 10 -8 6 -26 -13
-14 -15 -21 -29 -15 -31 8 -3 8 -10 1 -23 -9 -16 -14 -17 -38 -7 -15 7 -31 16
-37 21 -6 7 -5 7 4 2 11 -6 13 -4 8 8 -3 9 -1 19 5 23 7 4 6 9 -3 15 -10 6
-11 9 -1 9 6 0 12 5 12 10 0 6 -18 10 -39 10 -22 0 -52 5 -67 10 -23 9 -31 8
-48 -11 -15 -15 -17 -23 -8 -26 6 -3 12 -11 12 -19 0 -8 6 -11 16 -7 13 5 15
0 12 -27 -3 -29 0 -33 26 -36 16 -1 33 -7 38 -12 10 -10 -10 -62 -23 -62 -5 0
-6 -6 -3 -14 5 -14 -44 -56 -65 -56 -6 0 -11 -4 -11 -10 0 -5 5 -10 10 -10 6
0 10 -7 10 -15 0 -14 3 -14 31 0 19 11 41 14 60 10 24 -5 34 -2 50 16 25 29
24 39 -5 39 -13 0 -29 7 -36 15 -11 13 -9 19 8 35 12 11 26 20 32 20 5 0 10 6
10 14 0 42 50 17 62 -31 4 -16 2 -20 -8 -16 -9 3 -14 -1 -14 -12 0 -19 38 -54
58 -55 7 0 10 -5 6 -11 -3 -6 -15 -9 -25 -6 -13 4 -19 0 -19 -13 0 -10 -7 -23
-16 -30 -33 -28 -41 -80 -12 -80 6 0 7 7 4 16 -4 10 -2 13 6 8 8 -5 9 -2 5 9
-3 9 -1 19 5 23 7 4 8 3 4 -4 -4 -7 -2 -12 4 -12 6 0 13 7 16 15 4 8 16 15 28
15 11 1 35 12 51 25 26 22 27 25 10 25 -35 0 -47 14 -36 41 10 24 10 24 10 2
1 -13 6 -23 11 -23 6 0 8 13 5 33 -6 29 -5 30 8 13 10 -13 16 -15 21 -8 4 7
11 12 17 12 15 0 10 -27 -8 -46 -16 -16 -16 -16 7 -9 14 4 38 19 54 32 37 31
93 56 131 58 41 3 50 -4 28 -21 -12 -9 -13 -13 -5 -14 7 0 10 -5 6 -11 -5 -8
-8 -8 -14 0 -11 18 -56 -3 -91 -44 -17 -19 -39 -35 -49 -35 -11 0 -22 -4 -25
-10 -3 -6 1 -7 9 -4 9 3 16 1 16 -5 0 -13 -57 -44 -69 -37 -5 3 -11 -3 -14
-13 -3 -13 -13 -17 -33 -16 -54 4 -56 4 -49 25 4 13 -11 2 -39 -27 l-46 -48
-19 22 c-10 12 -21 20 -24 16 -3 -3 0 -12 8 -19 19 -19 -3 -68 -23 -51 -8 6
-12 21 -9 34 2 13 1 23 -3 23 -14 0 -27 -54 -19 -75 5 -13 8 -15 8 -5 1 12 3
13 10 1 5 -7 13 -11 19 -7 5 3 15 -1 22 -9 6 -7 17 -12 24 -9 18 7 40 54 37
78 -2 11 2 16 8 11 7 -3 11 -3 10 2 -4 22 3 24 21 8 11 -10 20 -24 20 -31 0
-7 4 -14 10 -16 6 -2 6 -8 0 -18 -8 -13 -10 -12 -10 3 0 20 -30 23 -48 5 -17
-17 -15 -33 2 -19 11 10 14 7 12 -14 -1 -22 -5 -25 -23 -20 -13 3 -23 1 -23
-3 0 -5 -11 -7 -24 -5 -33 7 -44 -16 -50 -100 -3 -45 -21 -68 -29 -38 -3 12
-1 21 4 21 5 0 9 8 9 18 0 14 -4 12 -20 -8 -18 -24 -19 -24 -26 -5 -12 33 -44
48 -44 20 0 -18 -12 -19 -27 -4 -8 8 -13 2 -18 -21 -10 -44 11 -64 32 -33 18
26 48 32 39 7 -3 -9 -6 -29 -6 -45 0 -22 -5 -29 -19 -29 -21 0 -44 23 -34 34
4 4 0 4 -9 1 -15 -6 -14 -9 4 -27 15 -15 19 -30 16 -58 -2 -29 0 -36 11 -32 8
3 20 -3 28 -14 12 -16 15 -17 23 -4 6 9 6 16 0 18 -6 2 -10 15 -10 29 0 19 4
24 16 19 9 -3 18 -6 20 -6 2 0 4 -9 4 -20 0 -11 7 -20 15 -20 20 0 20 -39 0
-46 -12 -5 -13 -9 -4 -20 9 -11 6 -20 -17 -41 l-28 -26 -33 38 c-22 25 -31 45
-27 57 3 10 1 18 -5 18 -6 0 -11 -4 -11 -10 0 -5 -7 -7 -16 -3 -11 4 -12 9 -5
16 17 17 14 50 -4 43 -11 -4 -15 1 -15 17 0 30 -21 75 -39 82 -9 4 -11 0 -6
-12 4 -10 10 -42 13 -71 4 -49 3 -54 -14 -50 -11 2 -20 13 -22 26 -2 14 -10
22 -22 22 -24 0 -37 -20 -19 -31 7 -4 10 -11 6 -16 -5 -4 -11 -3 -15 3 -4 6
-15 13 -25 17 -10 4 -16 11 -13 15 3 5 -8 22 -24 37 -24 23 -30 25 -30 12 0
-27 -37 -21 -44 7 -5 21 -14 25 -68 32 -35 4 -67 7 -72 6 -4 -2 -14 2 -20 8
-7 5 -16 7 -20 3 -3 -4 -15 3 -26 15 -24 25 -27 57 -5 48 22 -8 18 12 -5 24
-16 9 -20 8 -20 -5 0 -8 -5 -15 -10 -15 -6 0 -8 -10 -4 -24 6 -24 5 -24 -31
-13 -43 13 -65 48 -45 72 7 8 10 22 6 30 -3 8 -2 15 3 15 4 0 6 11 4 24 -6 28
12 42 32 26 12 -10 15 -9 16 6 0 14 2 15 6 4 10 -25 33 -42 48 -36 25 9 18 36
-10 36 -16 0 -25 6 -25 15 0 19 46 20 53 1 3 -7 22 -16 41 -20 26 -5 36 -12
36 -25 0 -10 9 -29 20 -42 l20 -24 -15 36 c-25 64 -35 152 -19 170 8 8 14 23
14 32 0 11 7 16 23 14 18 -2 22 3 22 26 -1 15 5 27 12 27 7 0 13 -6 13 -14 0
-8 13 -36 29 -63 16 -26 38 -64 49 -83 82 -137 98 -160 109 -160 18 0 29 -30
14 -39 -8 -5 -8 -12 2 -25 11 -15 19 -16 47 -8 24 7 29 11 15 12 -11 1 -26 2
-33 1 -11 -2 -11 2 -2 19 9 17 9 25 -2 38 -8 9 -15 28 -16 42 -1 14 -8 44 -16
67 -10 30 -11 44 -3 52 8 8 8 14 -1 23 -18 18 -16 69 3 62 10 -4 12 -15 9 -34
-6 -28 9 -49 21 -30 11 18 27 11 20 -10 -11 -35 33 -135 51 -117 4 4 2 18 -4
31 -9 21 -8 23 14 24 15 0 21 -5 17 -12 -4 -6 1 -5 11 3 13 11 20 11 28 3 7
-7 9 -12 5 -12 -3 0 4 -11 17 -25 13 -14 28 -25 35 -25 6 0 11 -6 11 -14 0 -7
7 -19 15 -26 12 -10 13 -6 8 25 -4 25 -2 40 7 45 17 10 -25 34 -46 26 -9 -3
-12 -1 -9 4 3 6 -2 10 -12 10 -11 0 -24 5 -30 11 -17 17 -4 39 24 39 20 0 24
-4 18 -17 -5 -14 -3 -15 5 -7 9 9 9 17 1 32 -6 11 -11 28 -11 36 0 14 3 14 20
4 24 -15 38 -3 23 20 -7 11 -21 16 -42 14 -31 -2 -33 -1 -47 46 -3 11 -7 10
-20 -2 -17 -18 -39 -22 -29 -6 4 6 -1 7 -11 3 -16 -6 -15 -7 2 -20 10 -7 20
-13 24 -13 3 0 11 -10 19 -21 16 -27 2 -39 -45 -39 -37 0 -48 9 -33 27 9 10 7
13 -11 11 -14 -2 -28 6 -38 22 -13 20 -14 22 -2 13 12 -9 15 -7 16 12 1 16 -5
25 -18 29 -15 3 -19 11 -16 29 3 18 0 24 -11 23 -12 -1 -16 9 -17 36 0 20 -6
43 -12 51 -10 12 -8 16 13 21 15 4 23 11 19 17 -4 8 1 9 15 4 42 -13 86 56 46
71 -8 4 -15 12 -15 19 0 7 -7 18 -15 25 -13 10 -19 8 -40 -12 -29 -29 -48 -74
-40 -98 3 -9 -1 -23 -10 -30 -18 -15 -20 -50 -2 -51 6 0 2 -4 -10 -9 -14 -6
-23 -18 -23 -31 0 -19 -4 -21 -37 -15 -21 3 -46 6 -56 6 -10 0 -22 10 -27 23
-5 13 -9 16 -10 7 0 -8 -8 0 -16 17 -15 31 -19 32 -55 27 -26 -4 -39 -3 -39 5
0 17 -37 13 -44 -4 -7 -20 -18 -19 -46 5 -14 12 -38 20 -59 20 -20 1 -56 5
-81 11 -103 23 -98 24 -93 -5 3 -14 9 -26 14 -26 5 0 9 -4 9 -10 0 -16 -37
-11 -44 6 -4 10 -12 14 -23 10 -9 -4 -31 -2 -49 4 -38 13 -56 7 -47 -16 4 -11
8 -12 19 -3 8 7 17 9 20 6 3 -2 -11 -21 -31 -40 -23 -22 -34 -41 -29 -48 5 -8
-1 -10 -20 -7 -34 7 -42 -7 -16 -29 32 -27 25 -42 -17 -40 -27 1 -39 7 -41 20
-2 12 3 17 18 17 18 0 20 3 11 14 -11 13 9 36 58 66 12 7 13 13 3 35 -14 30
-8 47 13 38 9 -3 15 1 15 10 0 9 -10 17 -22 20 -22 3 -22 4 5 15 16 7 46 12
68 12 42 0 49 14 16 34 -12 7 -21 6 -34 -6 -17 -16 -18 -14 -20 38 -2 41 1 56
12 60 20 8 20 54 -1 54 -8 0 -12 5 -9 11 4 6 14 8 22 5 25 -10 64 5 72 28 7
17 17 21 55 21 30 0 46 -4 46 -12 0 -14 22 -18 34 -6 3 4 15 8 26 10 14 2 20
-3 20 -17 0 -25 14 -26 38 -2 21 21 35 62 22 62 -20 0 -40 -13 -40 -27 0 -10
-6 -13 -16 -9 -9 3 -18 6 -21 6 -3 0 6 12 21 26 14 15 26 30 26 34 0 12 -35
39 -56 43 -10 2 -27 8 -38 12 -12 5 -21 3 -27 -6 -12 -20 -6 -34 17 -35 10 -1
25 -2 32 -3 8 -1 12 -10 10 -22 -4 -27 -50 -34 -90 -15 -15 8 -28 11 -30 7 -2
-3 -19 -14 -38 -23 -19 -10 -43 -24 -53 -30 -16 -11 -21 -10 -37 10 -10 12
-23 22 -29 22 -6 0 -11 9 -11 20 0 11 7 20 15 20 11 0 13 7 9 29 -5 24 1 38
30 74 38 47 43 66 24 85 -9 9 -18 6 -40 -15 -33 -31 -37 -29 -30 16 3 22 11
35 23 38 10 3 16 10 13 15 -3 5 -12 7 -19 4 -14 -5 -42 40 -32 50 4 4 17 0 31
-9 21 -14 26 -14 42 -1 18 14 18 15 -8 37 l-28 23 21 17 c12 10 18 25 15 33
-10 26 24 66 51 61 30 -6 30 16 0 40 -12 10 -29 33 -36 51 -17 41 -1 66 41 60
17 -3 28 0 28 7 0 17 48 56 55 45 4 -6 15 -10 26 -10 19 0 19 1 2 25 -10 13
-26 25 -35 25 -10 0 -18 6 -18 13 0 22 18 40 34 34 19 -7 46 1 46 14 0 5 -7 9
-16 9 -13 0 -15 7 -10 31 8 43 -11 68 -31 39 -8 -11 -28 -23 -46 -28 -20 -5
-37 -18 -45 -35 -9 -19 -21 -27 -38 -27 -23 0 -25 3 -22 43 2 34 7 42 23 42
11 1 25 3 30 7 6 3 25 9 42 13 18 3 35 10 38 15 3 4 -26 45 -65 89 -38 45 -70
85 -70 89 0 5 16 23 34 41 33 32 38 33 83 27 26 -3 59 -15 73 -26 14 -11 48
-35 75 -54 28 -18 61 -45 74 -60 14 -14 33 -26 43 -26 10 0 18 -7 18 -15 0 -8
7 -15 15 -15 8 0 15 -5 15 -12 0 -6 3 -8 6 -5 10 10 46 -13 41 -26 -2 -6 -28
-19 -58 -27 -41 -13 -53 -20 -51 -34 3 -15 0 -15 -18 -4 -17 11 -22 11 -29 0
-4 -7 -17 -15 -27 -16 -17 -3 -20 -8 -15 -35 0 -5 11 -7 24 -4 18 4 19 3 7 -6
-8 -6 -27 -11 -42 -11 -15 0 -30 -4 -33 -10 -3 -5 -11 -10 -16 -10 -6 0 -7 4
-4 10 3 5 0 7 -8 5 -18 -8 -10 -62 11 -70 9 -3 31 7 53 25 21 16 47 30 58 30
24 0 27 10 9 28 -14 14 -11 17 20 26 13 5 22 3 22 -3 0 -19 20 -12 29 11 6 16
18 22 51 25 24 3 61 13 83 23 36 18 42 18 68 4 33 -16 51 -11 42 12 -4 11 -8
12 -19 3 -12 -10 -17 -6 -27 20 -12 33 -42 42 -64 20 -25 -25 -136 50 -170
114 -8 17 -38 62 -67 101 -45 61 -84 125 -167 274 -11 18 -19 41 -19 50 0 9
-7 35 -14 58 -8 22 -23 81 -32 132 l-18 91 -55 -40 c-31 -22 -78 -59 -106 -82
-58 -48 -245 -237 -245 -247 0 -4 -12 -20 -26 -36 -14 -16 -56 -75 -95 -132
-193 -287 -299 -637 -299 -985 0 -138 14 -280 35 -349 7 -25 11 -49 8 -52 -4
-3 -2 -6 4 -6 6 0 19 -31 29 -70 10 -38 22 -70 26 -70 5 0 8 -6 7 -12 -2 -13
22 -75 41 -110 6 -10 10 -25 10 -33 0 -8 5 -15 11 -15 7 0 9 -9 6 -21 -3 -12
0 -22 9 -26 8 -3 11 -9 8 -14 -3 -5 -1 -9 4 -9 8 0 35 -45 36 -62 1 -3 4 -10
9 -14 4 -4 7 -15 7 -25 0 -10 9 -21 20 -24 12 -4 20 -15 20 -28 0 -12 9 -28
20 -35 11 -7 20 -19 20 -27 0 -8 5 -15 11 -15 6 0 9 -5 7 -12 -3 -7 11 -26 29
-44 18 -18 33 -39 33 -48 0 -9 7 -16 15 -16 8 0 15 -4 15 -9 0 -17 215 -227
288 -280 39 -30 72 -57 72 -62 0 -5 7 -6 15 -3 8 4 15 1 15 -5 0 -9 41 -36 67
-44 5 -1 7 -6 5 -10 -1 -5 2 -6 8 -2 5 3 34 -8 65 -25 30 -17 55 -27 55 -23 0
4 4 3 8 -3 9 -12 188 -76 292 -103 545 -142 1159 -8 1595 349 85 69 233 222
297 306 151 197 273 469 328 729 27 129 38 411 21 551 -62 518 -337 959 -787
1262 -67 45 -245 142 -260 142 -5 -1 -16 -8 -24 -18z m-114 -175 c1 -1 4 -16
7 -34 5 -26 3 -33 -13 -38 -11 -3 -31 1 -46 11 -23 16 -24 19 -10 29 22 17 20
25 -6 26 -22 0 -22 1 -3 9 16 7 66 5 71 -3z m-89 -81 c-4 -10 -1 -13 7 -10 19
7 29 -12 21 -37 -5 -16 -9 -18 -15 -9 -6 9 -11 6 -20 -11 -7 -13 -16 -26 -20
-29 -6 -4 -14 -60 -19 -132 -2 -17 -21 -7 -21 11 0 22 -25 45 -40 36 -13 -8
-13 -4 4 31 8 16 22 46 31 67 10 20 22 37 27 37 5 0 7 4 4 8 -7 11 22 52 36
52 5 0 8 -7 5 -14z m-92 -25 c-3 -6 -11 -11 -17 -11 -6 0 -6 6 2 15 14 17 26
13 15 -4z m195 -24 c0 -18 -24 -67 -32 -67 -5 0 -8 -7 -8 -16 0 -36 -25 -4
-27 34 -2 43 13 65 28 41 6 -11 9 -10 15 4 7 20 24 23 24 4z m-96 -68 c-24
-27 -30 -15 -9 18 12 17 20 23 23 15 2 -7 -4 -22 -14 -33z m-144 2 c0 -6 -4
-13 -10 -16 -5 -3 -10 1 -10 9 0 9 5 16 10 16 6 0 10 -4 10 -9z m44 -90 c8
-13 -4 -41 -18 -41 -6 0 -24 -14 -40 -30 -27 -28 -46 -38 -46 -25 0 17 33 66
56 84 29 23 40 26 48 12z m526 -73 c1 -2 7 -37 14 -78 10 -60 10 -91 1 -155
-6 -44 -14 -71 -16 -60 -3 11 -11 -16 -18 -60 -18 -107 -23 -115 -49 -72 -17
30 -20 47 -15 99 7 88 5 122 -7 126 -6 2 -6 10 1 24 8 16 7 22 -8 33 -10 7
-15 17 -11 21 4 4 14 1 22 -5 12 -10 14 -9 9 8 -3 12 -12 21 -19 21 -8 0 -17
7 -20 15 -10 24 -22 17 -16 -10 3 -16 -1 -27 -11 -31 -12 -4 -15 -17 -12 -56
2 -28 8 -54 13 -57 7 -4 6 -19 -3 -43 -7 -23 -9 -40 -3 -46 6 -6 6 -24 -1 -48
-15 -52 -14 -64 4 -64 8 0 15 -4 15 -9 0 -5 13 -11 29 -14 18 -4 30 -14 34
-28 5 -18 11 -21 37 -15 26 5 31 3 28 -12 -2 -9 6 -24 17 -34 28 -23 47 -5 40
36 -7 34 14 102 22 76 3 -8 14 -22 25 -31 18 -14 19 -20 8 -53 -8 -24 -18 -36
-30 -36 -10 0 -20 -5 -22 -10 -2 -6 -13 -12 -26 -13 -26 -2 -29 -12 -6 -21 8
-3 12 -10 9 -16 -3 -5 -1 -10 5 -10 6 0 15 -11 22 -24 9 -22 7 -29 -17 -58
-15 -18 -54 -47 -86 -64 -49 -26 -59 -29 -60 -15 0 11 -3 9 -9 -6 -10 -25 -18
-27 -38 -15 -13 9 -13 62 0 62 4 0 8 7 8 15 0 8 -7 15 -15 15 -8 0 -15 -9 -15
-19 0 -10 -6 -21 -14 -24 -9 -4 -12 -14 -9 -26 4 -15 1 -21 -10 -21 -10 0 -15
8 -14 20 1 11 5 20 9 20 5 0 4 8 -1 18 -5 10 -9 24 -9 32 2 37 -3 61 -11 55
-5 -3 -18 8 -27 24 -16 27 -19 28 -30 13 -15 -20 -19 -17 -28 21 -5 20 -2 29
9 33 8 4 15 17 15 29 0 13 6 26 13 28 7 3 5 6 -5 6 -10 1 -18 5 -18 10 0 5 30
13 68 18 l67 10 -90 2 c-70 2 -85 5 -69 13 20 9 21 12 6 40 -12 26 -12 32 -1
39 10 6 11 9 2 9 -7 0 -13 8 -14 18 0 14 -2 13 -11 -4 -8 -18 -15 -21 -38 -14
-16 5 -31 6 -34 2 -3 -3 -6 4 -6 15 0 11 7 26 15 33 24 20 18 30 -11 20 -60
-23 -73 -1 -23 43 28 25 30 30 24 69 -4 24 -8 47 -9 52 -1 12 55 27 75 21 9
-3 22 -19 29 -35 7 -17 18 -30 24 -30 7 0 27 -13 46 -30 19 -16 38 -29 42 -30
5 0 7 16 5 35 -1 19 -7 35 -13 35 -25 0 -33 97 -9 106 8 4 15 12 15 19 0 19
27 26 39 11 7 -8 27 -12 51 -10 30 3 40 0 40 -11 0 -8 7 -15 16 -15 14 0 14 3
4 15 -10 13 -9 15 8 15 12 0 23 9 27 20 5 16 24 29 25 18z m-410 -68 c-19 -13
-30 -13 -30 0 0 6 10 10 23 10 18 0 19 -2 7 -10z m-140 -40 c0 -8 9 -21 20
-28 12 -7 17 -18 13 -28 -6 -15 -7 -15 -19 1 -16 21 -37 10 -29 -15 6 -19 -31
-64 -45 -55 -12 8 2 59 22 81 11 12 16 28 12 37 -3 10 -3 25 0 34 6 15 8 15
16 3 6 -8 10 -22 10 -30z m45 10 c0 -8 -8 -16 -17 -18 -13 -2 -18 3 -18 18 0
15 5 20 18 18 9 -2 17 -10 17 -18z m245 -17 c0 -14 -19 -38 -25 -32 -8 8 5 39
16 39 5 0 9 -3 9 -7z m-188 -20 c5 -63 3 -82 -14 -110 -23 -39 -40 -42 -58 -9
-11 21 -10 28 9 54 11 17 21 35 21 41 0 14 21 40 33 41 4 0 8 -8 9 -17z m-244
-71 c2 -7 -3 -12 -12 -12 -9 0 -16 7 -16 16 0 17 22 14 28 -4z m56 -46 c-3 -8
-1 -17 5 -21 6 -3 11 -1 11 5 0 6 4 9 10 5 5 -3 7 -12 3 -20 -3 -8 -2 -15 1
-15 4 0 11 11 16 25 12 32 38 32 46 -1 9 -37 -3 -43 -73 -37 -71 7 -86 23 -51
57 24 24 41 24 32 2z m963 -28 c30 -16 58 -26 64 -22 6 3 21 -4 35 -17 18 -17
21 -25 13 -36 -6 -7 -18 -13 -26 -13 -8 0 -25 -8 -38 -18 -20 -16 -31 -17 -77
-9 -29 5 -61 13 -71 18 -16 9 -17 6 -11 -26 6 -36 0 -42 -26 -24 -11 8 -12 12
-2 16 23 9 12 32 -22 44 -19 7 -32 17 -29 21 3 5 7 7 9 5 3 -3 15 4 28 16 l22
20 -23 25 c-12 13 -20 28 -18 33 10 16 119 -4 172 -33z m-1022 -58 c-3 -4 1
-10 7 -13 9 -3 10 -8 3 -15 -16 -18 -42 3 -27 21 7 7 8 18 4 22 -4 5 -1 5 6 1
7 -4 10 -11 7 -16z m67 -12 c-11 -11 -32 -3 -32 12 0 4 9 6 21 3 13 -4 17 -9
11 -15z m172 6 c21 -8 21 -44 0 -44 -9 0 -14 6 -11 13 2 6 -3 17 -12 24 -17
13 -4 17 23 7z m453 -26 c-3 -7 -5 -2 -5 12 0 14 2 19 5 13 2 -7 2 -19 0 -25z
m-757 1 c0 -5 -4 -9 -10 -9 -5 0 -10 7 -10 16 0 8 5 12 10 9 6 -3 10 -10 10
-16z m205 -9 c3 -6 -4 -10 -17 -10 -18 0 -20 2 -8 10 19 12 18 12 25 0z m185
-15 c0 -8 -7 -15 -15 -15 -26 0 -18 20 13 29 1 1 2 -6 2 -14z m-335 -4 c3 -5
2 -12 -3 -15 -5 -3 -9 1 -9 9 0 17 3 19 12 6z m162 -19 c-10 -10 -17 -24 -17
-31 0 -7 -8 -11 -17 -9 -26 5 -23 43 2 43 11 0 24 6 28 13 5 8 11 11 15 8 3
-3 -2 -14 -11 -24z m530 -4 c-3 -7 -5 -2 -5 12 0 14 2 19 5 13 2 -7 2 -19 0
-25z m-997 1 c0 -6 -4 -7 -10 -4 -5 3 -10 11 -10 16 0 6 5 7 10 4 6 -3 10 -11
10 -16z m1325 1 c3 -5 17 -10 31 -10 21 0 24 -3 18 -27 -5 -28 -28 -89 -46
-129 -6 -12 -7 -31 -3 -43 4 -14 2 -23 -9 -27 -22 -8 -56 14 -56 36 0 11 -5
20 -11 20 -8 0 -9 14 -5 43 4 24 2 55 -3 70 -7 19 -6 28 4 37 8 6 11 18 8 26
-4 10 4 14 30 14 20 0 39 -4 42 -10z m-265 -20 c0 -5 -2 -10 -4 -10 -3 0 -8 5
-11 10 -3 6 -1 10 4 10 6 0 11 -4 11 -10z m-1840 -10 c0 -20 -39 -53 -55 -46
-18 7 -11 26 10 26 7 0 15 7 19 15 6 17 26 20 26 5z m1374 -29 c3 -5 15 -7 26
-4 24 6 25 -5 2 -33 -22 -28 -68 -44 -59 -20 3 8 2 18 -3 21 -6 4 -5 14 3 25
13 22 23 25 31 11z m-1434 -101 c9 -16 8 -20 -5 -20 -8 0 -15 9 -15 20 0 11 2
20 5 20 2 0 9 -9 15 -20z m1380 -19 c0 -5 -8 -12 -17 -15 -15 -6 -15 -8 -3
-16 10 -7 18 -5 25 4 6 7 22 16 38 20 25 6 27 4 27 -23 0 -33 -18 -51 -30 -31
-5 8 -10 9 -14 2 -3 -6 -2 -14 4 -17 6 -4 8 -16 4 -28 -6 -20 -4 -19 19 6 26
27 55 38 40 15 -4 -7 -9 -24 -11 -38 -4 -32 -12 -40 -12 -12 0 26 -15 29 -28
6 -7 -13 -10 -13 -20 -1 -8 10 -25 13 -51 10 -22 -3 -42 0 -46 6 -4 7 5 11 23
11 24 0 31 5 35 26 4 23 2 25 -22 20 -14 -3 -20 -3 -13 0 6 3 9 10 6 16 -3 5
2 18 12 28 21 21 34 25 34 11z m117 -17 c7 -20 -18 -38 -29 -21 -13 20 -9 37
7 37 9 0 18 -7 22 -16z m53 -54 c12 -17 19 -37 16 -46 -8 -21 -37 -29 -46 -14
-7 11 -11 11 -24 1 -11 -9 -16 -10 -16 -2 0 6 5 11 11 11 8 0 8 4 1 13 -19 22
-3 67 23 67 7 0 23 -14 35 -30z m562 -50 c2 -22 0 -40 -4 -40 -5 0 -8 6 -8 14
0 7 -3 28 -7 46 -4 22 -3 31 4 27 6 -4 13 -25 15 -47z m158 -82 c0 -4 -7 -11
-16 -16 -13 -7 -12 -11 10 -26 32 -21 33 -37 2 -73 -20 -23 -23 -37 -20 -78 3
-31 1 -45 -5 -37 -14 22 -23 -48 -11 -88 13 -44 13 -133 1 -126 -5 4 -19 -10
-31 -29 -25 -40 -37 -173 -19 -206 8 -16 7 -25 -7 -40 -16 -17 -16 -19 -1 -19
10 0 17 7 17 15 0 8 3 14 8 14 20 -3 22 4 5 31 -17 29 -17 33 0 79 9 27 17 63
17 79 0 20 7 35 19 41 15 9 18 18 14 56 -5 35 -2 45 9 45 8 0 54 -38 102 -84
82 -79 129 -112 145 -102 8 6 5 -60 -4 -74 -3 -6 -15 -10 -26 -10 -10 0 -19
-5 -19 -11 0 -6 9 -8 20 -4 14 5 20 2 20 -9 0 -9 -6 -16 -14 -16 -12 0 -12 -7
-4 -36 10 -39 4 -69 -13 -59 -6 4 -17 -2 -25 -14 -8 -12 -23 -21 -32 -21 -16
-1 -16 -1 0 -13 23 -18 17 -43 -15 -71 -15 -13 -27 -28 -27 -34 0 -6 -11 -23
-24 -39 -13 -15 -25 -37 -28 -48 -3 -16 -11 -19 -40 -17 -25 2 -37 -2 -42 -13
-7 -19 -53 -20 -72 -1 -19 19 -18 23 11 58 17 19 23 37 20 51 -3 12 -7 32 -8
45 -2 29 -17 29 -17 -1 0 -13 -5 -28 -12 -35 -9 -9 -8 -12 5 -12 20 0 21 -9 3
-32 -16 -22 -30 -23 -22 -3 3 8 2 15 -2 15 -4 0 -13 12 -19 27 -11 22 -10 30
1 42 8 9 12 30 10 49 -2 18 0 31 4 28 4 -2 8 13 7 35 0 21 -4 39 -10 39 -5 0
-23 -14 -40 -30 l-31 -30 -40 30 c-21 16 -43 30 -49 30 -20 0 4 -190 31 -244
8 -16 14 -42 14 -58 0 -27 1 -28 16 -13 14 13 47 13 62 0 8 -7 -23 -43 -52
-60 -44 -27 -47 -28 -44 -14 2 7 -6 14 -17 16 -15 2 -16 1 -5 -5 16 -7 20 -25
8 -37 -3 -3 -21 -9 -39 -12 -30 -4 -31 -4 -15 12 15 16 15 18 -6 36 -23 20
-23 20 -2 14 18 -5 22 -1 22 20 0 14 -4 28 -9 31 -5 3 -9 -2 -9 -10 0 -18 -9
-20 -30 -6 -8 5 -10 10 -4 10 17 0 27 32 12 41 -9 6 -9 11 0 22 10 12 8 13
-13 9 -17 -3 -25 -11 -26 -26 0 -20 -1 -20 -8 -1 -5 11 -7 23 -5 26 2 4 -3 10
-12 13 -8 3 -12 11 -9 17 5 6 12 4 20 -8 13 -17 14 -16 24 12 6 17 16 39 23
50 13 23 12 185 -2 199 -5 5 -5 17 2 29 6 13 9 53 5 104 -4 71 -2 85 12 96 21
15 34 47 19 47 -7 0 -6 5 2 15 7 8 9 15 4 15 -5 0 -8 22 -8 50 1 38 -2 50 -13
50 -12 0 -14 7 -9 32 7 37 29 53 67 49 15 -1 33 5 42 13 11 11 18 13 22 5 5
-6 13 -2 22 11 11 16 22 20 39 16 16 -4 26 -1 33 11 9 16 13 16 32 5 18 -12
23 -12 30 0 5 7 8 18 8 23 0 6 -3 4 -6 -2 -14 -37 -43 0 -43 55 0 12 -4 22
-10 22 -14 0 -23 66 -11 87 10 17 10 17 11 -1 0 -14 5 -17 22 -13 12 4 29 1
37 -6 12 -10 13 -9 3 10 -7 12 -12 34 -12 49 l0 28 35 -40 c19 -21 35 -42 35
-46z m-690 62 c0 -5 -5 -10 -11 -10 -5 0 -7 5 -4 10 3 6 8 10 11 10 2 0 4 -4
4 -10z m-105 -30 c-3 -5 -11 -10 -16 -10 -6 0 -7 5 -4 10 3 6 11 10 16 10 6 0
7 -4 4 -10z m842 -52 c-3 -8 -6 -5 -6 6 -1 11 2 17 5 13 3 -3 4 -12 1 -19z
m-427 -8 c0 -4 -5 -11 -12 -18 -8 -8 -15 -9 -25 -1 -10 9 -13 7 -13 -10 0 -19
-5 -21 -42 -17 -58 5 -58 19 -1 38 47 14 93 18 93 8z m-2010 -25 c11 -13 9
-19 -11 -33 -13 -9 -28 -17 -34 -17 -12 0 -35 46 -29 57 9 14 61 9 74 -7z
m2447 -7 c-3 -8 -6 -5 -6 6 -1 11 2 17 5 13 3 -3 4 -12 1 -19z m-731 -55 c-10
-10 -19 5 -10 18 6 11 8 11 12 0 2 -7 1 -15 -2 -18z m-1816 -3 c0 -5 -4 -10
-10 -10 -5 0 -10 5 -10 10 0 6 5 10 10 10 6 0 10 -4 10 -10z m2058 -2 c-6 -18
-28 -21 -28 -4 0 9 7 16 16 16 9 0 14 -5 12 -12z m-58 -34 c0 -2 -7 -4 -15 -4
-8 0 -15 4 -15 10 0 5 7 7 15 4 8 -4 15 -8 15 -10z m31 -44 c5 0 9 -8 8 -17 0
-11 -3 -13 -6 -5 -2 6 -11 12 -19 12 -16 0 -17 2 -7 27 7 17 8 17 11 1 2 -10
8 -18 13 -18z m460 7 c-13 -13 -26 -3 -16 12 3 6 11 8 17 5 6 -4 6 -10 -1 -17z
m-441 -57 c0 -5 -5 -10 -11 -10 -5 0 -7 5 -4 10 3 6 8 10 11 10 2 0 4 -4 4
-10z m-294 -47 c-2 -2 -11 0 -20 3 -14 5 -15 9 -5 15 12 7 34 -10 25 -18z
m278 -31 c-11 -17 -34 -24 -34 -9 0 4 0 21 0 37 l0 31 22 -21 c18 -16 20 -24
12 -38z m-340 36 c3 3 6 0 6 -6 0 -7 9 -12 21 -12 17 0 19 -4 13 -22 -6 -21
-5 -22 12 -8 10 8 15 10 11 5 -4 -5 2 -14 14 -20 20 -11 20 -13 -22 -46 -86
-67 -164 -94 -196 -68 -15 12 -16 12 -10 -3 4 -13 1 -18 -9 -18 -10 0 -14 6
-10 15 7 18 -3 19 -26 1 -22 -16 -23 -30 -2 -22 8 3 12 2 9 -4 -3 -6 -13 -10
-21 -10 -8 0 -14 -4 -14 -10 0 -5 -9 -14 -19 -19 -16 -9 -18 -8 -14 9 3 11 11
20 17 20 16 0 13 43 -2 48 -7 2 -12 8 -12 13 0 5 9 4 20 -3 24 -15 53 -1 58
28 4 18 3 18 -10 2 -9 -12 -18 -15 -27 -9 -11 7 -10 12 8 22 11 8 21 19 21 25
0 20 61 79 93 90 18 6 44 8 59 3 14 -4 29 -5 32 -1z m410 -4 c3 -8 2 -12 -4
-9 -6 3 -10 10 -10 16 0 14 7 11 14 -7z m-219 -46 c6 -33 4 -39 -15 -46 -12
-4 -21 -12 -21 -17 1 -6 -8 -11 -19 -11 -13 -1 -20 5 -20 17 0 11 7 19 15 19
18 0 18 5 5 30 -8 15 -5 23 12 40 26 24 34 18 43 -32z m-405 1 c-7 -11 -14
-19 -16 -16 -7 7 7 37 17 37 6 0 5 -9 -1 -21z m-80 -15 c0 -8 -4 -12 -10 -9
-5 3 -10 10 -10 16 0 5 5 9 10 9 6 0 10 -7 10 -16z m600 -2 c0 -4 -20 -38 -44
-75 -35 -54 -45 -63 -49 -47 -3 11 -2 18 3 15 4 -3 16 12 25 33 30 61 65 102
65 74z m-536 -40 c-6 -4 -14 -14 -17 -22 -4 -10 -6 -8 -6 8 -1 15 5 22 17 22
10 0 13 -3 6 -8z m653 -68 c8 -21 -13 -42 -28 -27 -13 13 -5 43 11 43 6 0 13
-7 17 -16z m-357 -25 c0 -5 -4 -9 -10 -9 -5 0 -10 7 -10 16 0 8 5 12 10 9 6
-3 10 -10 10 -16z m-83 -21 c-3 -7 -5 -2 -5 12 0 14 2 19 5 13 2 -7 2 -19 0
-25z m-147 -3 c0 -8 -4 -15 -10 -15 -5 0 -7 7 -4 15 4 8 8 15 10 15 2 0 4 -7
4 -15z m130 -14 c0 -41 -18 -83 -33 -78 -6 2 -10 12 -9 22 3 16 1 17 -12 6 -9
-8 -16 -19 -16 -27 0 -15 -12 -24 -39 -29 -13 -2 -26 6 -37 23 -14 21 -14 24
-2 14 13 -10 16 -9 21 7 2 11 0 24 -5 29 -6 6 1 17 19 31 29 24 41 15 24 -18
-23 -42 -11 -51 23 -16 19 18 37 31 40 28 3 -4 6 3 6 15 0 12 5 22 10 22 6 0
10 -13 10 -29z m-1580 -27 c0 -8 -4 -14 -10 -14 -5 0 -10 9 -10 21 0 11 5 17
10 14 6 -3 10 -13 10 -21z m1976 -1 c-10 -10 -19 5 -10 18 6 11 8 11 12 0 2
-7 1 -15 -2 -18z m-379 -15 c-3 -7 -5 -2 -5 12 0 14 2 19 5 13 2 -7 2 -19 0
-25z m323 5 c0 -20 -3 -24 -11 -16 -6 6 -18 9 -25 6 -9 -3 -14 2 -14 16 0 16
6 21 25 21 20 0 25 -5 25 -27z m-593 3 c-3 -8 1 -22 8 -33 8 -10 15 -24 15
-32 0 -11 -3 -11 -16 0 -30 25 -38 79 -12 79 6 0 8 -6 5 -14z m1356 -32 c-4
-10 -9 -12 -15 -6 -12 12 -1 35 12 27 5 -3 6 -13 3 -21z m-2709 -20 c22 -8 20
-21 -4 -27 -15 -4 -20 0 -20 14 0 21 1 22 24 13z m1302 -33 c-1 -22 -3 -37 -5
-35 -2 2 -10 -1 -18 -7 -17 -14 -17 2 0 20 10 11 10 13 0 7 -7 -4 -13 -2 -13
3 0 6 7 11 15 11 8 0 15 5 15 10 0 6 -7 10 -16 10 -8 0 -12 5 -9 10 15 24 31
8 31 -29z m-1341 -9 c4 -22 11 -28 33 -27 20 0 27 -5 28 -21 1 -12 5 -27 9
-33 5 -9 -1 -11 -26 -6 -19 4 -41 7 -50 8 -13 1 -16 12 -15 54 1 58 11 69 21
25z m1765 -12 c0 -5 -2 -10 -4 -10 -3 0 -8 5 -11 10 -3 6 -1 10 4 10 6 0 11
-4 11 -10z m117 -12 c0 -7 4 -25 8 -40 4 -17 3 -28 -3 -28 -10 0 -22 33 -22
63 0 19 16 24 17 5z m-262 -8 c9 -15 -22 -67 -57 -93 -36 -27 -122 -67 -144
-67 -28 0 -13 20 24 29 54 15 107 55 133 101 23 41 33 48 44 30z m248 -84 c17
-5 19 -8 8 -15 -16 -10 3 -26 19 -16 6 3 10 0 10 -9 0 -8 5 -16 11 -18 7 -2 9
-13 4 -26 -9 -30 -31 -22 -27 9 2 23 2 23 -12 4 -8 -11 -12 -23 -10 -27 3 -5
0 -8 -6 -8 -8 0 -10 9 -6 25 4 17 2 25 -7 25 -9 0 -13 11 -12 30 1 17 -2 33
-7 36 -4 3 -8 15 -7 27 1 20 2 19 10 -4 6 -15 20 -30 32 -33z m-992 24 c26
-14 24 -36 -3 -43 -26 -7 -38 7 -31 34 6 22 8 22 34 9z m53 -15 c3 -8 1 -15
-4 -15 -6 0 -10 7 -10 15 0 8 2 15 4 15 2 0 6 -7 10 -15z m196 -15 c0 -5 -2
-10 -4 -10 -2 0 -12 -3 -20 -6 -12 -5 -15 -2 -10 10 7 17 34 22 34 6z m680 0
c0 -5 -5 -10 -11 -10 -5 0 -7 5 -4 10 3 6 8 10 11 10 2 0 4 -4 4 -10z m280
-20 c11 -7 5 -9 -23 -8 -24 1 -33 4 -25 9 17 11 30 11 48 -1z m-783 -6 c-3 -3
-12 -4 -19 -1 -8 3 -5 6 6 6 11 1 17 -2 13 -5z m283 -14 c0 -5 -2 -10 -4 -10
-3 0 -8 5 -11 10 -3 6 -1 10 4 10 6 0 11 -4 11 -10z m425 -10 c18 -7 19 -8 3
-15 -21 -8 -48 0 -48 15 0 12 17 12 45 0z m63 -13 c2 -10 -3 -17 -12 -17 -18
0 -29 16 -21 31 9 14 29 6 33 -14z m-594 -16 c3 -5 -1 -11 -9 -15 -8 -3 -15
-12 -15 -21 0 -8 -4 -15 -10 -15 -15 0 -12 16 5 30 8 7 12 16 9 21 -3 5 -1 9
5 9 5 0 12 -4 15 -9z m-1488 -27 c8 3 14 1 14 -5 0 -16 -35 -6 -36 11 -1 10 0
11 3 2 3 -8 11 -11 19 -8z m331 -1 c-3 -3 -11 -2 -17 2 -9 6 -9 10 1 16 14 8
27 -7 16 -18z m1433 23 c0 -3 -4 -8 -10 -11 -5 -3 -10 -1 -10 4 0 6 5 11 10
11 6 0 10 -2 10 -4z m-350 -18 c0 -4 -9 -8 -21 -8 -11 0 -18 4 -15 8 3 5 12 9
21 9 8 0 15 -4 15 -9z m-1140 -34 c10 -26 1 -59 -16 -52 -4 1 -18 12 -29 23
-15 14 -19 25 -13 38 13 26 47 21 58 -9z m254 11 c-5 -12 -10 -13 -20 -4 -19
15 -18 19 6 19 13 0 18 -5 14 -15z m1300 -17 c8 25 46 28 54 3 3 -9 -2 -11
-17 -6 -17 5 -21 2 -21 -17 0 -13 4 -18 8 -13 8 12 72 19 72 8 0 -10 -32 -43
-42 -43 -14 0 -38 -27 -30 -34 3 -4 -2 -4 -13 0 -11 4 -23 12 -27 18 -5 7 -8
7 -8 -1 0 -16 -46 -17 -55 -2 -4 5 8 35 27 65 32 55 33 55 39 27 5 -27 5 -28
13 -5z m197 -51 c-11 -11 -34 0 -26 13 3 5 1 11 -5 15 -16 10 -11 -27 7 -47 9
-10 24 -18 35 -18 13 0 18 -8 18 -30 0 -38 -25 -41 -34 -4 -6 21 -9 24 -21 14
-8 -7 -15 -23 -15 -36 l0 -24 -40 20 c-46 24 -51 46 -18 90 17 24 19 32 9 44
-20 24 -4 36 27 20 25 -13 28 -12 36 7 9 19 11 18 23 -17 8 -23 10 -41 4 -47z
m-694 51 c-2 -12 -9 -24 -16 -26 -9 -3 -9 2 0 22 15 32 20 33 16 4z m364 -21
c-6 -6 -11 -20 -11 -30 0 -11 -11 -28 -25 -39 -27 -21 -34 -44 -11 -35 9 4 16
-1 18 -11 6 -29 -12 -157 -22 -160 -6 -2 -10 -10 -10 -18 0 -10 -5 -12 -12 -8
-9 5 -9 2 1 -9 16 -20 10 -119 -8 -125 -6 -2 -11 -11 -12 -20 0 -9 -3 -12 -5
-7 -7 16 -82 5 -89 -12 -3 -9 -3 -18 0 -21 3 -3 5 0 5 6 0 7 11 12 25 12 14 0
25 -5 25 -11 0 -6 9 -8 20 -4 23 7 26 -6 9 -36 -6 -13 -16 -18 -26 -15 -18 7
-42 -20 -43 -47 0 -23 -60 -97 -79 -97 -8 0 -38 16 -68 36 -29 19 -58 32 -63
29 -5 -3 -7 0 -5 8 3 7 -3 22 -15 32 -27 24 -26 30 15 86 19 27 35 56 35 64 0
13 6 28 27 64 2 2 9 -2 18 -9 12 -10 15 -10 15 1 0 23 17 42 29 34 9 -5 9 -10
1 -20 -21 -26 6 -42 36 -22 7 4 17 0 24 -8 11 -13 10 -14 -4 -9 -9 3 -16 1
-16 -4 0 -10 27 -42 36 -42 2 0 3 24 2 53 -2 47 -5 53 -23 52 -29 -3 -64 26
-65 53 0 14 -8 26 -22 31 -23 9 -23 9 5 21 15 7 27 21 27 31 0 25 11 49 22 49
6 0 8 -11 6 -24 -4 -18 0 -26 14 -29 11 -3 16 -11 13 -19 -8 -19 -35 -19 -35
0 0 22 -6 12 -14 -23 -6 -24 -5 -28 5 -17 21 20 39 14 39 -14 0 -17 -4 -23
-12 -18 -9 5 -8 2 1 -10 20 -24 32 -6 22 32 -7 22 -6 32 1 32 18 0 48 31 48
49 0 13 -2 14 -9 2 -8 -12 -12 -12 -25 2 -20 20 -20 27 -1 27 8 0 15 6 16 13
0 10 2 10 6 0 7 -20 23 -15 23 6 0 52 93 183 119 166 5 -3 13 0 17 7 6 9 9 9
12 -1 2 -7 -1 -18 -7 -24z m-1731 -2 c0 -8 -4 -15 -10 -15 -5 0 -10 7 -10 15
0 8 5 15 10 15 6 0 10 -7 10 -15z m1240 1 c0 -3 -7 -12 -16 -20 -19 -20 -40
-11 -23 10 10 13 39 20 39 10z m-1062 -59 c4 -20 -25 -34 -40 -19 -15 15 -1
44 19 40 10 -2 19 -11 21 -21z m727 13 c3 -5 1 -10 -4 -10 -6 0 -11 5 -11 10
0 6 2 10 4 10 3 0 8 -4 11 -10z m-240 -14 c-11 -8 -24 -12 -29 -8 -5 3 -1 9
10 13 31 12 39 10 19 -5z m675 4 c0 -5 -2 -10 -4 -10 -3 0 -8 5 -11 10 -3 6
-1 10 4 10 6 0 11 -4 11 -10z m260 -25 c0 -8 -4 -15 -9 -15 -5 0 -11 7 -15 15
-3 9 0 15 9 15 8 0 15 -7 15 -15z m190 -5 c0 -5 12 -10 26 -10 l27 0 -6 -70
c-5 -61 -4 -70 11 -70 21 -1 62 -34 63 -52 0 -7 5 -3 11 10 6 12 14 22 17 22
17 -1 31 -19 33 -46 1 -16 11 -35 21 -43 13 -9 15 -17 8 -24 -7 -7 -15 -6 -26
3 -8 7 -16 9 -16 4 -3 -24 5 -49 19 -60 8 -6 13 -18 9 -27 -3 -9 3 -27 15 -42
16 -21 18 -28 8 -40 -18 -22 -40 -18 -71 11 l-28 27 3 -29 c2 -16 4 -32 5 -36
0 -4 18 -6 39 -4 20 2 42 -1 49 -6 8 -6 16 -1 26 18 10 20 16 23 22 14 9 -15
-28 -50 -52 -50 -9 0 -13 -6 -9 -15 3 -9 -3 -23 -13 -32 -11 -9 -17 -23 -13
-32 4 -13 3 -14 -9 -5 -19 15 -59 24 -59 14 0 -14 -39 -18 -44 -4 -3 8 -14 14
-25 14 -21 0 -31 18 -31 58 -1 15 -7 41 -14 57 l-14 30 -11 -27 c-9 -23 -17
-28 -45 -28 -34 0 -56 23 -35 36 6 3 14 17 19 30 9 23 40 34 40 14 0 -5 6 -7
14 -4 11 4 12 12 3 40 -8 27 -13 31 -24 22 -10 -8 -17 -8 -25 0 -14 14 0 35
19 28 11 -5 13 -2 8 11 -4 10 -7 28 -6 41 0 12 -4 22 -9 22 -15 0 -12 78 3 87
6 4 12 18 13 31 3 98 4 104 19 98 9 -3 15 0 15 9 0 8 5 15 10 15 6 0 10 -4 10
-10z m576 -17 c-10 -10 -19 5 -10 18 6 11 8 11 12 0 2 -7 1 -15 -2 -18z m-786
-23 c0 -5 -5 -10 -11 -10 -5 0 -7 5 -4 10 3 6 8 10 11 10 2 0 4 -4 4 -10z
m-410 -4 c0 -3 -4 -8 -10 -11 -5 -3 -10 -1 -10 4 0 6 5 11 10 11 6 0 10 -2 10
-4z m793 -13 c2 -5 7 -20 11 -35 5 -22 3 -28 -9 -28 -13 0 -14 -2 -3 -14 9
-10 15 -11 20 -2 5 7 8 5 8 -5 0 -20 -27 -33 -36 -18 -4 7 -10 7 -17 0 -6 -6
-20 -11 -31 -11 -16 0 -17 3 -8 12 19 19 14 29 -13 22 -20 -5 -25 -2 -25 13 0
24 18 43 41 43 9 0 19 7 23 15 6 16 32 21 39 8z m97 -14 c0 -18 -2 -19 -15 -9
-8 7 -15 16 -15 21 0 5 7 9 15 9 9 0 15 -9 15 -21z m-1212 -22 c7 -8 7 -18 2
-27 -10 -17 -15 -13 -24 18 -8 24 5 30 22 9z m218 -8 c-15 -9 -16 -13 -5 -20
11 -7 10 -11 -6 -23 -22 -16 -35 -6 -35 26 0 16 17 25 50 27 11 0 10 -3 -4
-10z m387 -14 c-3 -9 -8 -14 -10 -11 -3 3 -2 9 2 15 9 16 15 13 8 -4z m-199
-14 c-10 -10 -21 -17 -23 -15 -6 6 20 34 32 34 6 0 2 -8 -9 -19z m788 -23
c-15 -15 -26 -4 -18 18 5 13 9 15 18 6 9 -9 9 -15 0 -24z m114 -34 c-3 -9 -6
-21 -6 -27 0 -7 -5 -4 -11 6 -11 18 -5 37 13 37 5 0 7 -7 4 -16z m-716 -4 c0
-5 -4 -10 -10 -10 -5 0 -10 5 -10 10 0 6 5 10 10 10 6 0 10 -4 10 -10z m807
-27 c3 -7 -3 -9 -16 -6 -12 3 -21 10 -21 15 0 13 32 6 37 -9z m-722 -53 c3 -5
-1 -10 -10 -10 -9 0 -13 5 -10 10 3 6 8 10 10 10 2 0 7 -4 10 -10z m-260 -10
c-3 -5 -12 -7 -20 -3 -21 7 -19 13 6 13 11 0 18 -4 14 -10z m775 -37 c0 -12
-2 -23 -4 -23 -2 0 -11 -3 -19 -6 -17 -6 -30 29 -16 43 18 18 39 10 39 -14z
m-720 -27 c0 -21 -27 -27 -42 -9 -11 15 -11 16 5 10 9 -3 17 -2 17 3 0 6 5 10
10 10 6 0 10 -6 10 -14z m380 -6 c0 -5 -4 -10 -10 -10 -5 0 -10 5 -10 10 0 6
5 10 10 10 6 0 10 -4 10 -10z m346 -17 c7 -10 14 -21 14 -25 0 -10 -26 -3 -44
12 -14 10 -14 15 -4 21 18 12 19 11 34 -8z m-800 -13 c19 0 17 -10 -6 -38 -11
-13 -24 -21 -30 -17 -13 8 -13 -1 1 -27 9 -16 8 -19 -2 -16 -16 5 -29 61 -22
89 3 12 11 18 19 15 8 -3 14 0 15 7 0 9 2 9 6 0 2 -7 11 -13 19 -13z m1034
-28 c0 -34 -33 -72 -61 -72 -11 0 -18 -4 -14 -10 3 -5 12 -7 20 -4 19 8 31
-24 16 -39 -9 -9 -16 -9 -31 0 -15 10 -19 9 -23 -5 -4 -16 -4 -16 -11 0 -9 21
29 88 49 88 9 0 12 11 11 35 -3 31 0 35 20 35 20 0 24 -5 24 -28z m-1650 -33
c0 -6 -4 -7 -10 -4 -5 3 -10 11 -10 16 0 6 5 7 10 4 6 -3 10 -11 10 -16z m150
-23 c0 -9 -30 -14 -35 -6 -4 6 3 10 14 10 12 0 21 -2 21 -4z m892 -1 c9 -9
-16 -74 -30 -80 -20 -8 -29 1 -36 37 -4 21 -2 34 6 40 15 9 52 11 60 3z m388
-40 c0 -8 -4 -15 -10 -15 -5 0 -7 7 -4 15 4 8 8 15 10 15 2 0 4 -7 4 -15z
m-320 -5 c0 -5 -5 -10 -11 -10 -5 0 -7 5 -4 10 3 6 8 10 11 10 2 0 4 -4 4 -10z
m-485 -61 c0 -32 -4 -44 -15 -44 -15 0 -22 41 -12 77 9 34 27 12 27 -33z m830
-19 c3 -5 -1 -10 -9 -10 -9 0 -16 5 -16 10 0 6 4 10 9 10 6 0 13 -4 16 -10z"/>
<path d="M2845 3543 c-4 -32 -12 -64 -18 -71 -16 -20 -2 -24 15 -5 17 20 32
120 18 128 -5 3 -12 -21 -15 -52z"/>
<path d="M2586 3512 c-4 -13 -5 -26 -2 -29 10 -11 18 4 14 29 l-4 23 -8 -23z"/>
<path d="M2725 3320 c4 -6 11 -8 16 -5 14 9 11 15 -7 15 -8 0 -12 -5 -9 -10z"/>
<path d="M2804 3305 c3 -8 2 -14 -2 -14 -19 3 -22 -2 -9 -15 18 -18 58 -10 50
10 -3 8 0 14 6 14 6 0 11 -4 11 -10 0 -5 6 -10 13 -10 6 1 1 10 -12 20 -28 24
-66 27 -57 5z"/>
<path d="M2750 3259 c-14 -4 -19 -7 -12 -8 6 -1 11 -4 11 -8 -4 -22 3 -33 18
-33 9 0 13 3 10 7 -4 3 -2 12 5 20 16 19 -2 32 -32 22z"/>
<path d="M2620 3245 c0 -8 5 -15 10 -15 6 0 10 7 10 15 0 8 -4 15 -10 15 -5 0
-10 -7 -10 -15z"/>
<path d="M2850 3249 c0 -5 -3 -8 -7 -6 -5 3 -9 -12 -10 -33 -2 -26 2 -40 13
-44 11 -4 14 0 12 16 -2 11 3 23 10 25 6 3 12 -1 13 -9 1 -7 4 -2 8 12 5 17 2
29 -8 37 -20 15 -31 16 -31 2z"/>
<path d="M2726 3144 c-8 -22 -8 -24 8 -24 19 0 28 27 11 34 -7 2 -16 -2 -19
-10z"/>
<path d="M2421 3134 c0 -11 3 -14 6 -6 3 7 2 16 -1 19 -3 4 -6 -2 -5 -13z"/>
<path d="M2557 3146 c-3 -8 -2 -18 3 -21 13 -8 20 9 11 24 -6 10 -10 9 -14 -3z"/>
<path d="M3186 2834 c-8 -21 -9 -20 14 -21 27 -2 33 11 10 25 -15 9 -19 8 -24
-4z"/>
<path d="M3172 2775 c-11 -13 -8 -15 18 -15 32 0 40 14 14 24 -19 7 -16 8 -32
-9z"/>
<path d="M3120 2761 c0 -11 5 -23 10 -26 6 -3 10 3 10 14 0 11 -4 23 -10 26
-5 3 -10 -3 -10 -14z"/>
<path d="M3427 2466 c-3 -8 1 -20 9 -26 8 -7 14 -9 14 -4 1 5 7 -2 15 -16 10
-18 14 -20 15 -8 0 9 -11 29 -24 43 -18 20 -25 22 -29 11z"/>
<path d="M3532 2418 c-14 -14 -16 -28 -3 -28 9 0 24 30 18 36 -2 2 -9 -2 -15
-8z"/>
<path d="M3395 2390 c4 -6 11 -8 16 -5 5 4 9 2 9 -4 0 -17 -22 -24 -30 -10 -6
10 -25 13 -70 11 -68 -4 -74 -17 -17 -37 35 -12 37 -12 32 6 -7 21 5 25 23 7
7 -7 12 -9 12 -4 0 4 13 -1 30 -11 29 -17 31 -17 47 0 17 17 17 19 -7 37 -27
21 -55 27 -45 10z"/>
<path d="M3466 2378 c3 -4 12 -8 20 -8 8 0 14 4 14 8 0 4 -9 8 -19 8 -11 0
-17 -4 -15 -8z"/>
<path d="M3381 2254 c0 -11 3 -14 6 -6 3 7 2 16 -1 19 -3 4 -6 -2 -5 -13z"/>
<path d="M3200 2176 c0 -2 7 -7 16 -10 8 -3 12 -2 9 4 -6 10 -25 14 -25 6z"/>
<path d="M3371 2157 c-9 -11 -8 -17 3 -26 11 -9 15 -8 20 5 9 23 -8 38 -23 21z"/>
<path d="M3085 1940 c-10 -11 -13 -20 -8 -20 13 0 38 29 31 35 -3 3 -13 -4
-23 -15z"/>
<path d="M2600 2040 c0 -5 7 -10 16 -10 8 0 12 5 9 10 -3 6 -10 10 -16 10 -5
0 -9 -4 -9 -10z"/>
<path d="M2765 2020 c-3 -5 -1 -10 4 -10 6 0 11 5 11 10 0 6 -2 10 -4 10 -3 0
-8 -4 -11 -10z"/>
<path d="M2470 1949 c0 -5 5 -7 10 -4 6 3 10 8 10 11 0 2 -4 4 -10 4 -5 0 -10
-5 -10 -11z"/>
<path d="M2420 1851 c0 -6 4 -12 8 -15 5 -3 9 1 9 9 0 8 -4 15 -9 15 -4 0 -8
-4 -8 -9z"/>
<path d="M2286 1523 c-12 -12 -6 -33 9 -33 8 0 15 6 15 14 0 17 -14 28 -24 19z"/>
<path d="M2550 1930 c0 -5 5 -10 11 -10 5 0 7 5 4 10 -3 6 -8 10 -11 10 -2 0
-4 -4 -4 -10z"/>
<path d="M2652 1609 c2 -6 8 -10 13 -10 5 0 11 4 13 10 2 6 -4 11 -13 11 -9 0
-15 -5 -13 -11z"/>
<path d="M1105 4257 c-22 -12 -20 -48 3 -40 15 6 15 4 -2 -15 -19 -22 -19 -22
5 -22 67 1 92 30 42 48 -25 9 -26 11 -6 11 14 1 21 6 17 14 -5 14 -37 17 -59
4z"/>
<path d="M1055 4250 c-3 -5 -2 -10 4 -10 5 0 13 5 16 10 3 6 2 10 -4 10 -5 0
-13 -4 -16 -10z"/>
<path d="M2455 4250 c-3 -5 -2 -10 4 -10 5 0 13 5 16 10 3 6 2 10 -4 10 -5 0
-13 -4 -16 -10z"/>
<path d="M2367 4205 c-32 -19 -62 -35 -67 -35 -6 0 -10 -5 -10 -11 0 -5 -6 -7
-12 -3 -10 5 -10 4 -1 -6 10 -11 16 -11 31 3 10 9 43 28 75 41 31 14 57 30 57
36 0 16 -11 12 -73 -25z"/>
<path d="M1140 4161 c-14 -27 -13 -31 10 -31 11 0 20 -7 20 -16 0 -8 5 -12 10
-9 6 4 8 11 5 16 -4 5 1 9 9 9 22 0 20 17 -4 30 -17 9 -20 8 -20 -7 0 -15 -2
-15 -9 -3 -6 8 -7 18 -5 22 3 4 3 8 0 8 -3 0 -10 -9 -16 -19z"/>
<path d="M1091 4144 c0 -11 3 -14 6 -6 3 7 2 16 -1 19 -3 4 -6 -2 -5 -13z"/>
<path d="M1106 4015 c4 -8 8 -15 10 -15 2 0 4 7 4 15 0 8 -4 15 -10 15 -5 0
-7 -7 -4 -15z"/>
<path d="M2033 3802 c4 -17 -2 -28 -23 -44 -16 -12 -27 -25 -24 -30 3 -4 -2
-11 -10 -14 -16 -6 -22 -24 -8 -24 4 0 26 17 50 38 l43 38 -16 29 c-13 24 -16
25 -12 7z"/>
<path d="M1890 3750 c0 -18 4 -29 10 -25 6 3 10 15 10 25 0 10 -4 22 -10 25
-6 4 -10 -7 -10 -25z"/>
<path d="M382 3690 c-18 -29 -15 -38 4 -12 9 13 14 25 12 27 -2 2 -9 -5 -16
-15z"/>
<path d="M1810 3655 c0 -8 4 -15 10 -15 5 0 7 7 4 15 -4 8 -8 15 -10 15 -2 0
-4 -7 -4 -15z"/>
<path d="M1686 3644 c-5 -12 -2 -15 10 -10 8 3 18 6 20 6 3 0 2 5 -1 10 -9 15
-22 12 -29 -6z"/>
<path d="M341 3620 c-5 -16 -6 -30 -1 -30 4 0 13 14 19 30 5 17 6 30 1 30 -4
0 -13 -13 -19 -30z"/>
<path d="M1809 3623 c-1 -5 -1 -11 0 -15 0 -5 -8 -8 -19 -8 -21 0 -28 -24 -10
-35 6 -4 8 -10 5 -15 -3 -4 1 -13 9 -19 11 -9 15 -8 20 5 3 9 12 14 20 11 15
-6 30 29 16 38 -4 3 -6 14 -3 25 4 15 0 20 -16 20 -11 0 -22 -3 -22 -7z"/>
<path d="M1726 3591 c-7 -11 3 -41 14 -41 4 0 5 11 2 25 -5 27 -8 30 -16 16z"/>
<path d="M1045 3540 c-3 -5 -1 -10 4 -10 6 0 11 5 11 10 0 6 -2 10 -4 10 -3 0
-8 -4 -11 -10z"/>
<path d="M1865 3510 c20 -23 29 -21 19 4 -3 9 -13 16 -22 16 -13 0 -12 -3 3
-20z"/>
<path d="M1700 3510 c0 -5 7 -7 15 -4 8 4 15 8 15 10 0 2 -7 4 -15 4 -8 0 -15
-4 -15 -10z"/>
<path d="M1640 3480 c0 -11 6 -20 14 -20 9 0 12 7 9 20 -3 11 -9 20 -14 20 -5
0 -9 -9 -9 -20z"/>
<path d="M1195 3440 c3 -5 8 -10 11 -10 2 0 4 5 4 10 0 6 -5 10 -11 10 -5 0
-7 -4 -4 -10z"/>
<path d="M1785 3437 c-4 -10 -5 -21 -1 -24 10 -10 18 4 13 24 -4 17 -4 17 -12
0z"/>
<path d="M1697 3409 c-3 -11 -15 -23 -26 -26 -12 -3 -21 -10 -21 -15 0 -6 11
-7 24 -4 16 4 30 0 40 -10 9 -8 16 -14 17 -12 9 38 7 53 -6 61 -8 4 -13 12
-10 18 4 5 2 9 -3 9 -5 0 -12 -9 -15 -21z"/>
<path d="M977 3373 c-4 -3 -7 -11 -7 -17 0 -6 5 -5 12 2 6 6 9 14 7 17 -3 3
-9 2 -12 -2z"/>
<path d="M1161 3368 c-1 -10 6 -18 14 -18 8 0 15 5 15 11 0 5 -4 8 -9 5 -5 -4
-12 0 -14 6 -3 8 -6 6 -6 -4z"/>
<path d="M1776 3348 c-7 -37 -2 -45 19 -28 19 15 19 27 1 45 -12 12 -15 9 -20
-17z"/>
<path d="M2150 3328 c0 -9 -6 -18 -12 -21 -10 -3 -10 -8 -2 -16 9 -10 13 -6
18 14 4 15 5 30 1 33 -3 3 -5 -2 -5 -10z"/>
<path d="M1600 3312 c0 -5 7 -16 16 -23 14 -12 16 -11 13 5 -4 20 -29 35 -29
18z"/>
<path d="M1840 3301 c0 -11 5 -23 10 -26 6 -3 10 3 10 14 0 11 -4 23 -10 26
-5 3 -10 -3 -10 -14z"/>
<path d="M1666 3302 c-4 -3 4 -12 16 -19 13 -7 18 -12 12 -13 -6 0 -9 -10 -7
-24 3 -16 10 -23 19 -19 8 3 14 1 14 -5 0 -5 -8 -12 -18 -15 -11 -2 -22 -15
-25 -28 l-6 -24 16 23 c17 25 38 29 46 8 3 -8 -2 -16 -15 -19 -11 -3 -17 -10
-14 -16 4 -5 -3 -15 -14 -21 -13 -7 -20 -7 -20 0 0 5 -7 10 -15 10 -8 0 -15
-7 -15 -15 0 -8 6 -15 14 -15 19 0 28 -14 20 -34 -8 -21 -30 -20 -44 2 -9 14
-10 11 -8 -18 2 -39 -9 -64 -32 -73 -10 -3 -7 -6 8 -6 16 -1 26 6 29 19 3 11
11 20 19 20 8 0 11 6 7 17 -5 12 -2 15 10 10 9 -3 17 -3 17 1 0 16 52 62 62
56 7 -4 8 -2 4 4 -4 7 -2 12 5 12 9 0 9 3 0 14 -10 12 -8 21 6 42 16 25 16 27
1 22 -23 -9 -32 21 -13 42 15 17 15 18 -2 16 -10 0 -21 -5 -25 -11 -4 -5 -8 1
-8 15 0 25 -32 55 -44 42z"/>
<path d="M1776 3300 c-17 -6 -18 -7 -3 -13 9 -3 19 -2 23 4 9 15 2 18 -20 9z"/>
<path d="M2182 3293 c2 -10 11 -19 21 -21 21 -4 13 24 -9 32 -11 4 -14 1 -12
-11z"/>
<path d="M1817 3281 c-4 -17 -3 -21 5 -13 5 5 8 16 6 23 -3 8 -7 3 -11 -10z"/>
<path d="M1895 3260 c3 -5 8 -10 11 -10 2 0 4 5 4 10 0 6 -5 10 -11 10 -5 0
-7 -4 -4 -10z"/>
<path d="M2148 3253 c7 -3 16 -2 19 1 4 3 -2 6 -13 5 -11 0 -14 -3 -6 -6z"/>
<path d="M1624 3239 c-10 -17 10 -29 23 -14 10 10 9 14 -2 19 -8 3 -17 0 -21
-5z"/>
<path d="M1903 3219 c-1 -10 2 -19 8 -19 11 0 12 27 1 34 -4 2 -9 -4 -9 -15z"/>
<path d="M1850 3220 c-20 -12 -10 -19 14 -10 11 3 15 9 10 13 -6 3 -16 2 -24
-3z"/>
<path d="M1640 3185 c-8 -9 -8 -15 -2 -15 12 0 26 19 19 26 -2 2 -10 -2 -17
-11z"/>
<path d="M1908 3163 c6 -2 18 -2 25 0 6 3 1 5 -13 5 -14 0 -19 -2 -12 -5z"/>
<path d="M2070 3155 c0 -9 5 -15 11 -13 6 2 11 8 11 13 0 5 -5 11 -11 13 -6 2
-11 -4 -11 -13z"/>
<path d="M2221 3149 c-21 -23 -21 -24 -3 -39 31 -25 47 -76 33 -108 -11 -25
-10 -26 4 -8 19 25 20 103 1 146 l-13 32 -22 -23z"/>
<path d="M1784 3136 c-9 -10 -7 -15 6 -24 14 -9 20 -8 23 1 4 9 6 9 6 0 1 -6
-3 -15 -9 -18 -13 -8 -13 -25 1 -25 5 0 8 4 5 8 -2 4 4 14 15 20 18 12 19 11
10 -5 -6 -12 -6 -25 0 -36 16 -28 24 -19 24 28 1 24 -1 42 -3 40 -3 -2 -17 2
-33 10 -33 18 -31 18 -45 1z"/>
<path d="M1890 3135 c5 -6 29 -25 53 -43 l44 -31 19 21 c11 12 13 18 7 14 -9
-5 -13 1 -13 18 0 14 -4 28 -10 31 -5 3 -10 1 -10 -6 0 -7 -8 -9 -22 -5 -42
13 -78 13 -68 1z"/>
<path d="M71 3084 c0 -11 3 -14 6 -6 3 7 2 16 -1 19 -3 4 -6 -2 -5 -13z"/>
<path d="M1211 3069 c-19 -7 -22 -12 -13 -21 9 -9 16 -8 29 5 21 21 15 27 -16
16z"/>
<path d="M61 3024 c0 -11 3 -14 6 -6 3 7 2 16 -1 19 -3 4 -6 -2 -5 -13z"/>
<path d="M1780 3030 c0 -5 5 -10 10 -10 6 0 10 5 10 10 0 6 -4 10 -10 10 -5 0
-10 -4 -10 -10z"/>
<path d="M1835 3020 c-3 -5 -2 -10 4 -10 5 0 13 5 16 10 3 6 2 10 -4 10 -5 0
-13 -4 -16 -10z"/>
<path d="M1936 2971 c-10 -11 -15 -25 -11 -31 5 -8 12 -5 22 10 20 29 12 46
-11 21z"/>
<path d="M1590 2956 c0 -9 5 -16 10 -16 6 0 10 4 10 9 0 6 -4 13 -10 16 -5 3
-10 -1 -10 -9z"/>
<path d="M2017 2938 c-3 -18 -9 -41 -13 -51 -6 -17 -5 -18 13 -6 16 9 20 21
18 47 -5 46 -11 50 -18 10z"/>
<path d="M1410 2952 c0 -7 -7 -12 -15 -12 -8 0 -15 -5 -15 -11 0 -5 -4 -7 -10
-4 -5 3 -10 1 -10 -4 0 -16 12 -13 40 9 14 10 21 22 17 26 -4 4 -7 2 -7 -4z"/>
<path d="M1110 2905 c0 -17 4 -23 14 -19 8 3 24 1 35 -6 13 -6 21 -7 21 -1 0
5 -9 12 -19 16 -11 3 -22 12 -25 20 -9 24 -26 17 -26 -10z"/>
<path d="M1879 2912 c-46 -31 -82 -62 -77 -68 3 -2 16 4 29 15 13 11 38 31 54
45 34 29 32 32 -6 8z"/>
<path d="M2050 2913 c0 -7 9 -13 20 -13 12 0 17 5 14 13 -3 8 -11 14 -19 14
-8 0 -15 -6 -15 -14z"/>
<path d="M1050 2910 c0 -5 5 -10 11 -10 5 0 7 5 4 10 -3 6 -8 10 -11 10 -2 0
-4 -4 -4 -10z"/>
<path d="M1717 2913 c-4 -3 -7 -11 -7 -17 0 -6 5 -5 12 2 6 6 9 14 7 17 -3 3
-9 2 -12 -2z"/>
<path d="M1505 2901 c-3 -6 -11 -9 -16 -6 -5 4 -9 2 -9 -3 0 -15 32 -24 44
-12 7 7 7 13 -1 21 -8 8 -13 8 -18 0z"/>
<path d="M2235 2900 c-4 -6 3 -10 14 -10 25 0 27 6 6 13 -8 4 -17 2 -20 -3z"/>
<path d="M1283 2888 c-13 -6 -23 -15 -23 -20 0 -4 -6 -8 -14 -8 -20 0 -26 -12
-19 -38 7 -30 23 -28 23 3 0 14 5 25 10 25 6 0 10 -5 10 -11 0 -8 5 -8 15 1 8
7 12 16 9 22 -3 5 0 15 6 23 14 17 13 17 -17 3z"/>
<path d="M1035 2870 c-3 -5 -1 -10 4 -10 6 0 11 5 11 10 0 6 -2 10 -4 10 -3 0
-8 -4 -11 -10z"/>
<path d="M43 2820 c0 -25 2 -35 4 -22 2 12 2 32 0 45 -2 12 -4 2 -4 -23z"/>
<path d="M1382 2838 c5 -15 28 -23 28 -10 0 5 -7 13 -16 16 -10 4 -14 1 -12
-6z"/>
<path d="M1936 2821 c-15 -17 -15 -19 -1 -25 24 -9 35 -7 35 5 0 5 -5 7 -12 3
-8 -5 -9 0 -6 14 7 27 6 27 -16 3z"/>
<path d="M1141 2802 c0 -15 3 -21 6 -14 2 6 11 12 19 12 21 0 17 17 -6 23 -16
4 -20 0 -19 -21z"/>
<path d="M1715 2814 c9 -9 18 -14 21 -11 9 9 -6 27 -22 27 -13 0 -13 -2 1 -16z"/>
<path d="M1821 2784 c0 -11 3 -14 6 -6 3 7 2 16 -1 19 -3 4 -6 -2 -5 -13z"/>
<path d="M1115 2760 c3 -5 10 -10 16 -10 5 0 9 5 9 10 0 6 -7 10 -16 10 -8 0
-12 -4 -9 -10z"/>
<path d="M1197 2743 c-4 -3 -7 -16 -7 -27 0 -17 -2 -18 -10 -6 -8 13 -10 13
-10 -2 0 -26 16 -30 41 -10 14 12 20 25 16 35 -7 18 -19 22 -30 10z"/>
<path d="M1020 2730 c-12 -7 -12 -12 -2 -22 10 -10 15 -10 22 2 19 29 9 39
-20 20z"/>
<path d="M1105 2728 c-11 -6 -21 -12 -23 -13 -1 -1 0 -9 4 -18 7 -18 34 -11
34 9 0 8 7 14 16 14 8 0 12 5 9 10 -8 13 -15 12 -40 -2z"/>
<path d="M1290 2726 c0 -9 4 -16 8 -16 4 0 13 -13 19 -30 13 -35 39 -39 48 -9
8 24 -16 53 -52 64 -17 5 -23 2 -23 -9z"/>
<path d="M1044 2666 c-3 -8 1 -25 10 -37 16 -23 21 -18 28 26 4 24 -29 34 -38
11z"/>
<path d="M1250 2661 c0 -6 4 -13 10 -16 6 -3 7 1 4 9 -7 18 -14 21 -14 7z"/>
<path d="M1981 2639 c-6 -18 -11 -33 -11 -34 0 -1 14 0 30 3 34 5 38 21 11 46
-18 16 -19 16 -30 -15z"/>
<path d="M43 2615 c0 -27 2 -38 4 -22 2 15 2 37 0 50 -2 12 -4 0 -4 -28z"/>
<path d="M1477 2626 c-5 -17 -18 -44 -30 -60 -12 -17 -15 -26 -7 -20 8 6 28
14 43 18 21 5 26 10 19 19 -6 7 -12 26 -14 42 l-3 30 -8 -29z"/>
<path d="M963 2619 c-35 -22 -40 -38 -22 -70 13 -24 29 -16 29 16 0 13 4 26 9
29 7 5 23 46 18 46 -1 0 -17 -10 -34 -21z"/>
<path d="M1225 2630 c3 -5 8 -10 11 -10 2 0 4 5 4 10 0 6 -5 10 -11 10 -5 0
-7 -4 -4 -10z"/>
<path d="M1875 2620 c-3 -5 -1 -10 4 -10 6 0 11 5 11 10 0 6 -2 10 -4 10 -3 0
-8 -4 -11 -10z"/>
<path d="M2083 2623 c9 -2 25 -2 35 0 9 3 1 5 -18 5 -19 0 -27 -2 -17 -5z"/>
<path d="M1032 2593 c-10 -4 -10 -8 -1 -19 16 -20 29 -17 29 6 0 20 -5 23 -28
13z"/>
<path d="M1309 2583 c-12 -16 -12 -17 2 -6 9 7 19 10 22 6 4 -3 7 -1 7 5 0 17
-16 15 -31 -5z"/>
<path d="M1516 2575 c-3 -10 2 -27 15 -43 l21 -27 -8 30 c-11 48 -20 60 -28
40z"/>
<path d="M1960 2570 c-12 -23 -4 -25 37 -9 26 10 27 12 8 19 -30 13 -33 12
-45 -10z"/>
<path d="M1000 2563 c1 -18 18 -35 24 -24 4 6 4 16 1 21 -7 12 -25 13 -25 3z"/>
<path d="M1340 2560 c0 -5 7 -7 15 -4 8 4 15 8 15 10 0 2 -7 4 -15 4 -8 0 -15
-4 -15 -10z"/>
<path d="M1300 2530 c0 -11 7 -23 15 -26 9 -4 14 -13 13 -22 -2 -8 2 -17 7
-18 6 -2 11 14 11 37 1 29 -1 38 -9 30 -16 -16 -27 -13 -21 4 4 8 1 15 -5 15
-6 0 -11 -9 -11 -20z"/>
<path d="M1473 2531 c0 -11 5 -18 9 -15 4 3 5 11 1 19 -7 21 -12 19 -10 -4z"/>
<path d="M1963 2530 c-30 -12 -29 -18 2 -12 14 2 25 8 25 13 0 5 -1 9 -2 8 -2
0 -13 -4 -25 -9z"/>
<path d="M2170 2520 c13 -24 17 -25 17 -5 0 8 -6 16 -14 19 -11 4 -11 1 -3
-14z"/>
<path d="M52 2500 c0 -14 2 -19 5 -12 2 6 2 18 0 25 -3 6 -5 1 -5 -13z"/>
<path d="M1410 2512 c0 -6 -12 -13 -27 -17 -16 -4 -23 -9 -16 -12 18 -6 68 22
54 31 -6 4 -11 3 -11 -2z"/>
<path d="M1595 2502 c4 -14 1 -30 -7 -40 -12 -16 -11 -16 6 -2 18 14 18 13 11
-10 -7 -22 -6 -23 8 -12 9 8 22 10 29 6 11 -6 11 -5 0 8 -10 13 -10 17 0 21 9
4 7 6 -4 6 -9 1 -24 11 -33 24 l-17 22 7 -23z"/>
<path d="M1566 2487 c3 -10 9 -15 12 -12 3 3 0 11 -7 18 -10 9 -11 8 -5 -6z"/>
<path d="M1877 2483 c-4 -3 -7 -11 -7 -17 0 -6 5 -5 12 2 6 6 9 14 7 17 -3 3
-9 2 -12 -2z"/>
<path d="M1040 2453 c0 -14 8 -18 36 -17 35 1 70 20 36 20 -9 0 -29 3 -44 7
-23 6 -28 4 -28 -10z"/>
<path d="M61 2428 c1 -13 4 -36 8 -53 l7 -30 5 32 c3 18 2 30 -3 27 -4 -3 -8
-1 -8 5 0 5 4 11 9 13 5 2 3 9 -5 16 -12 11 -14 9 -13 -10z"/>
<path d="M1150 2441 c0 -6 7 -11 16 -11 8 0 12 -5 9 -10 -4 -6 -11 -8 -16 -5
-5 3 -6 0 -3 -8 3 -9 13 -13 25 -10 23 6 24 -4 3 -46 -9 -18 -14 -35 -11 -37
8 -8 58 27 52 36 -3 4 2 24 10 43 l14 35 -35 7 c-19 3 -42 9 -50 12 -8 3 -14
0 -14 -6z"/>
<path d="M1416 2435 c4 -9 0 -15 -10 -15 -9 0 -16 -7 -16 -16 0 -9 7 -14 18
-12 18 3 31 58 13 58 -6 0 -8 -7 -5 -15z"/>
<path d="M1516 2435 c-3 -9 0 -15 9 -15 16 0 20 16 6 24 -5 3 -11 -1 -15 -9z"/>
<path d="M1000 2410 c6 -11 13 -20 15 -20 3 0 5 9 5 20 0 11 -7 20 -15 20 -13
0 -14 -4 -5 -20z"/>
<path d="M1075 2399 c-11 -17 1 -21 15 -4 8 9 8 15 2 15 -6 0 -14 -5 -17 -11z"/>
<path d="M1125 2370 c-3 -6 1 -13 10 -16 19 -8 30 0 20 15 -8 14 -22 14 -30 1z"/>
<path d="M81 2314 c0 -11 3 -14 6 -6 3 7 2 16 -1 19 -3 4 -6 -2 -5 -13z"/>
<path d="M1035 2310 c3 -5 10 -10 16 -10 5 0 9 5 9 10 0 6 -7 10 -16 10 -8 0
-12 -4 -9 -10z"/>
<path d="M1640 2301 c-8 -11 -25 -22 -37 -24 -32 -5 -41 -17 -12 -17 30 0 73
32 67 50 -2 8 -9 6 -18 -9z"/>
<path d="M2086 2312 c-3 -5 1 -9 9 -9 8 0 12 4 9 9 -3 4 -7 8 -9 8 -2 0 -6 -4
-9 -8z"/>
<path d="M1108 2298 c9 -9 15 -9 24 0 9 9 7 12 -12 12 -19 0 -21 -3 -12 -12z"/>
<path d="M1521 2286 c-8 -9 -8 -16 -2 -20 6 -4 15 3 21 14 12 23 -2 27 -19 6z"/>
<path d="M101 2224 c0 -11 3 -14 6 -6 3 7 2 16 -1 19 -3 4 -6 -2 -5 -13z"/>
<path d="M1795 2200 c-4 -6 -1 -18 6 -26 10 -13 10 -17 -2 -25 -18 -11 -26
-11 -34 1 -7 12 -25 4 -25 -11 0 -5 15 -9 34 -9 27 0 35 -4 38 -20 2 -12 8
-19 13 -18 6 2 8 8 6 13 -2 6 -6 23 -9 38 -3 22 0 29 17 34 11 3 18 9 15 14
-3 5 -10 7 -15 3 -5 -3 -16 -1 -24 6 -9 8 -15 8 -20 0z"/>
<path d="M1845 2160 c-7 -12 12 -40 27 -40 13 0 6 43 -9 47 -6 2 -14 -1 -18
-7z"/>
<path d="M1707 2147 c-11 -29 -9 -43 4 -30 6 6 9 19 7 29 -3 18 -4 18 -11 1z"/>
<path d="M1915 2140 c-3 -5 1 -10 9 -10 9 0 16 5 16 10 0 6 -4 10 -9 10 -6 0
-13 -4 -16 -10z"/>
<path d="M156 2057 c3 -10 9 -15 12 -12 3 3 0 11 -7 18 -10 9 -11 8 -5 -6z"/>
<path d="M1995 2009 c-4 -11 -4 -23 -1 -26 3 -4 6 1 6 10 0 10 5 17 10 17 6 0
10 5 10 10 0 18 -19 10 -25 -11z"/>
<path d="M2225 2009 c-4 -6 -5 -12 -2 -15 2 -3 7 2 10 11 7 17 1 20 -8 4z"/>
<path d="M2025 1990 c4 -6 11 -8 16 -5 14 9 11 15 -7 15 -8 0 -12 -5 -9 -10z"/>
<path d="M306 1743 c69 -121 158 -237 262 -343 l114 -115 -89 98 c-48 54 -90
103 -92 110 -11 33 -93 148 -129 181 -13 11 -36 42 -52 68 -39 62 -50 62 -14
1z"/>
<path d="M1800 1709 c0 -5 5 -7 10 -4 6 3 10 8 10 11 0 2 -4 4 -10 4 -5 0 -10
-5 -10 -11z"/>
<path d="M1529 1663 c6 -12 16 -25 21 -28 17 -11 11 5 -11 28 l-21 22 11 -22z"/>
<path d="M1570 1605 c-14 -16 -3 -20 19 -6 8 5 9 11 3 15 -5 3 -15 -1 -22 -9z"/>
<path d="M1665 1580 c19 -21 45 -27 45 -10 0 6 -12 15 -26 20 -36 14 -39 13
-19 -10z"/>
<path d="M1915 1449 c-11 -17 -2 -18 19 -3 17 12 17 14 4 14 -9 0 -20 -5 -23
-11z"/>
<path d="M700 1276 c0 -2 8 -10 18 -17 15 -13 16 -12 3 4 -13 16 -21 21 -21
13z"/>
<path d="M760 1221 c52 -45 221 -161 195 -134 -10 10 -157 115 -198 142 -16
10 -15 7 3 -8z"/>
<path d="M1480 990 c0 -5 5 -10 10 -10 6 0 10 5 10 10 0 6 -4 10 -10 10 -5 0
-10 -4 -10 -10z"/>
</g>
</svg>
